<?xml version="1.0" encoding="UTF-8"?>
<!-- Created with Inkscape (http://www.inkscape.org/) -->
<svg width="1179.1" height="808.47" version="1.1" viewBox="0 0 311.96 213.91" xmlns="http://www.w3.org/2000/svg">
 <g transform="translate(11.417 11.344)">
  <path d="m-11.417-11.344h311.96v213.91h-311.96z" fill="#fff" stop-color="#000000" stroke-width=".5"/>
  <g transform="matrix(0 -2.775 2.775 0 13.341 12.287)" stroke-width=".095346" aria-label="©2024 retrodotcards.com">
   <path d="m-51.176 90.225q0.10473 0 0.19499 0.0379 0.09095 0.0379 0.16605 0.113 0.0751 0.0751 0.11231 0.16536 0.03721 0.09026 0.03721 0.19637 0 0.10473-0.03721 0.19499-0.03721 0.08957-0.11231 0.16468-0.0751 0.0751-0.16605 0.113-0.09026 0.0379-0.19499 0.0379-0.10473 0-0.19568-0.0379-0.09026-0.0379-0.16536-0.113-0.0751-0.0751-0.11231-0.16468-0.03721-0.09026-0.03721-0.19499 0-0.10611 0.03721-0.19637 0.03721-0.09026 0.11231-0.16536 0.0751-0.0751 0.16536-0.113 0.09095-0.0379 0.19568-0.0379zm0 0.07097q-0.09026 0-0.16812 0.03238-0.07786 0.03238-0.14263 0.09715-0.06477 0.06477-0.09784 0.144-0.03307 0.07855-0.03307 0.16812 0 0.08888 0.03307 0.16743 0.03307 0.07786 0.09784 0.14263 0.06477 0.06477 0.14263 0.09784 0.07786 0.03238 0.16812 0.03238 0.09095 0 0.16881-0.03238 0.07855-0.03307 0.14332-0.09784 0.06408-0.06408 0.09577-0.14194 0.03238-0.07786 0.03238-0.16812 0-0.09164-0.03238-0.1695-0.03238-0.07855-0.09577-0.14263-0.06477-0.06477-0.14332-0.09715-0.07786-0.03238-0.16881-0.03238zm0.20602 0.16881v0.08888q-0.04548-0.02274-0.09026-0.03376-0.04479-0.01103-0.09026-0.01103-0.10266 0-0.16054 0.06063-0.05719 0.05994-0.05719 0.16812 0 0.10955 0.05857 0.1695 0.05926 0.05994 0.16605 0.05994 0.0441 0 0.08613-0.01034 0.04203-0.01102 0.08751-0.03445v0.08751q-0.04616 0.01998-0.09371 0.02963-0.04685 0.0096-0.09509 0.0096-0.14883 0-0.23564-0.08406-0.08613-0.08406-0.08613-0.22738 0-0.144 0.08613-0.22738 0.08682-0.08337 0.23564-0.08337 0.0503 0 0.09715 0.0096t0.09164 0.02825z"/>
   <path d="m-50.2 91.131h0.48576v0.11713h-0.65319v-0.11713q0.07924-0.08199 0.21566-0.2198 0.13712-0.13849 0.17226-0.17846 0.06684-0.0751 0.09302-0.12678 0.02687-0.05237 0.02687-0.10266 0-0.08199-0.05788-0.13367-0.05719-0.05168-0.14952-0.05168-0.06546 0-0.13849 0.02274-0.07235 0.02274-0.15503 0.0689v-0.14056q0.08406-0.03376 0.1571-0.05099 0.07304-0.01722 0.13367-0.01722 0.15985 0 0.25494 0.07993 0.09508 0.07993 0.09508 0.2136 0 0.06339-0.02412 0.12058-0.02343 0.0565-0.08613 0.13367-0.01723 0.01998-0.10955 0.11576-0.09233 0.09508-0.26045 0.26665z"/>
   <path d="m-49.124 90.311q-0.10749 0-0.16192 0.10611-0.05374 0.10542-0.05374 0.31764 0 0.21153 0.05374 0.31764 0.05443 0.10542 0.16192 0.10542 0.10818 0 0.16192-0.10542 0.05443-0.10611 0.05443-0.31764 0-0.21222-0.05443-0.31764-0.05374-0.10611-0.16192-0.10611zm0-0.11024q0.17294 0 0.26389 0.13712 0.09164 0.13642 0.09164 0.39687 0 0.25976-0.09164 0.39688-0.09095 0.13643-0.26389 0.13643t-0.26458-0.13643q-0.09095-0.13712-0.09095-0.39688 0-0.26045 0.09095-0.39687 0.09164-0.13712 0.26458-0.13712z"/>
   <path d="m-48.404 91.131h0.48576v0.11713h-0.65319v-0.11713q0.07924-0.08199 0.21566-0.2198 0.13711-0.13849 0.17225-0.17846 0.06683-0.0751 0.09302-0.12678 0.02687-0.05237 0.02687-0.10266 0-0.08199-0.05788-0.13367-0.05719-0.05168-0.14952-0.05168-0.06546 0-0.13849 0.02274-0.07235 0.02274-0.15503 0.0689v-0.14056q0.08406-0.03376 0.1571-0.05099 0.07304-0.01722 0.13367-0.01722 0.15985 0 0.25494 0.07993 0.09508 0.07993 0.09508 0.2136 0 0.06339-0.02412 0.12058-0.02343 0.0565-0.08613 0.13367-0.01722 0.01998-0.10955 0.11576-0.09233 0.09508-0.26045 0.26665z"/>
   <path d="m-47.244 90.341-0.3514 0.54915h0.3514zm-0.03652-0.12127h0.17501v0.67042h0.14676v0.11576h-0.14676v0.24253h-0.13849v-0.24253h-0.4644v-0.13436z"/>
   <path d="m-45.85 90.595q-0.02136-0.0124-0.04685-0.01792-0.0248-0.0062-0.05512-0.0062-0.10749 0-0.16536 0.07028-0.05719 0.06959-0.05719 0.2005v0.40652h-0.12747v-0.7717h0.12747v0.11989q0.03996-0.07028 0.10404-0.10404 0.06408-0.03445 0.15572-0.03445 0.01309 0 0.02894 0.0021 0.01585 0.0014 0.03514 0.0048z"/>
   <path d="m-45.088 90.831v0.06201h-0.58291q0.0083 0.13091 0.07855 0.19982 0.07097 0.06821 0.19706 0.06821 0.07304 0 0.14125-0.01791 0.0689-0.01791 0.13643-0.05374v0.11989q-0.06821 0.02894-0.13987 0.0441-0.07166 0.01516-0.14538 0.01516-0.18466 0-0.29283-0.10749-0.10749-0.10749-0.10749-0.29077 0-0.18948 0.10197-0.30041 0.10266-0.11162 0.2763-0.11162 0.15572 0 0.24598 0.1006 0.09095 0.09991 0.09095 0.27216zm-0.12678-0.03721q-0.0014-0.10404-0.05857-0.16605-0.0565-0.06201-0.15021-0.06201-0.10611 0-0.17019 0.05994-0.06339 0.05994-0.07304 0.16881z"/>
   <path d="m-44.755 90.258v0.21911h0.26114v0.09853h-0.26114v0.41892q0 0.0944 0.02549 0.12127 0.02618 0.02687 0.10542 0.02687h0.13022v0.10611h-0.13022q-0.14676 0-0.20257-0.05443-0.05581-0.05512-0.05581-0.19982v-0.41892h-0.09302v-0.09853h0.09302v-0.21911z"/>
   <path d="m-43.88 90.595q-0.02136-0.0124-0.04685-0.01792-0.0248-0.0062-0.05512-0.0062-0.10749 0-0.16536 0.07028-0.05719 0.06959-0.05719 0.2005v0.40652h-0.12747v-0.7717h0.12747v0.11989q0.03996-0.07028 0.10404-0.10404 0.06408-0.03445 0.15572-0.03445 0.01309 0 0.02894 0.0021 0.01585 0.0014 0.03514 0.0048z"/>
   <path d="m-43.479 90.566q-0.10198 0-0.16123 0.07993-0.05926 0.07924-0.05926 0.21773 0 0.13849 0.05857 0.21842 0.05926 0.07924 0.16192 0.07924 0.10129 0 0.16054-0.07993 0.05926-0.07993 0.05926-0.21773 0-0.13712-0.05926-0.21704-0.05926-0.08061-0.16054-0.08061zm0-0.10749q0.16536 0 0.25976 0.10749 0.0944 0.10749 0.0944 0.29766 0 0.18948-0.0944 0.29766-0.0944 0.10749-0.25976 0.10749-0.16605 0-0.26045-0.10749-0.09371-0.10818-0.09371-0.29766 0-0.19017 0.09371-0.29766 0.0944-0.10749 0.26045-0.10749z"/>
   <path d="m-42.407 90.594v-0.41755h0.12678v1.0721h-0.12678v-0.11576q-0.03996 0.0689-0.10129 0.10266-0.06063 0.03307-0.14607 0.03307-0.13987 0-0.22806-0.11162-0.08751-0.11162-0.08751-0.29352t0.08751-0.29352q0.08819-0.11162 0.22806-0.11162 0.08544 0 0.14607 0.03376 0.06132 0.03307 0.10129 0.10198zm-0.43202 0.26941q0 0.13987 0.05719 0.2198 0.05788 0.07924 0.15847 0.07924 0.1006 0 0.15848-0.07924 0.05788-0.07993 0.05788-0.2198 0-0.13987-0.05788-0.21911-0.05788-0.07993-0.15848-0.07993-0.1006 0-0.15847 0.07993-0.05719 0.07924-0.05719 0.21911z"/>
   <path d="m-41.72 90.566q-0.10198 0-0.16123 0.07993-0.05926 0.07924-0.05926 0.21773 0 0.13849 0.05857 0.21842 0.05926 0.07924 0.16192 0.07924 0.10129 0 0.16054-0.07993 0.05926-0.07993 0.05926-0.21773 0-0.13712-0.05926-0.21704-0.05926-0.08061-0.16054-0.08061zm0-0.10749q0.16536 0 0.25976 0.10749 0.09439 0.10749 0.09439 0.29766 0 0.18948-0.09439 0.29766-0.0944 0.10749-0.25976 0.10749-0.16605 0-0.26045-0.10749-0.09371-0.10818-0.09371-0.29766 0-0.19017 0.09371-0.29766 0.09439-0.10749 0.26045-0.10749z"/>
   <path d="m-41.03 90.258v0.21911h0.26114v0.09853h-0.26114v0.41892q0 0.0944 0.02549 0.12127 0.02618 0.02687 0.10542 0.02687h0.13022v0.10611h-0.13022q-0.14676 0-0.20257-0.05443-0.05581-0.05512-0.05581-0.19982v-0.41892h-0.09302v-0.09853h0.09302v-0.21911z"/>
   <path d="m-40.047 90.506v0.11851q-0.05374-0.02963-0.10818-0.0441-0.05374-0.01516-0.10886-0.01516-0.12333 0-0.19155 0.07855-0.06821 0.07786-0.06821 0.21911 0 0.14125 0.06821 0.2198 0.06821 0.07786 0.19155 0.07786 0.05512 0 0.10886-0.01447 0.05443-0.01516 0.10818-0.04479v0.11713q-0.05306 0.02481-0.11024 0.03721-0.0565 0.0124-0.12058 0.0124-0.17432 0-0.27699-0.10955t-0.10266-0.29559q0-0.18879 0.10335-0.29697 0.10404-0.10818 0.28456-0.10818 0.05857 0 0.11438 0.0124 0.05581 0.01171 0.10818 0.03583z"/>
   <path d="m-39.476 90.86q-0.15365 0-0.21291 0.03514-0.05926 0.03514-0.05926 0.11989 0 0.06752 0.0441 0.10749 0.04479 0.03927 0.12127 0.03927 0.10542 0 0.16881-0.07441 0.06408-0.0751 0.06408-0.19913v-0.02825zm0.25287-0.05237v0.44028h-0.12678v-0.11713q-0.04341 0.07028-0.10818 0.10404-0.06477 0.03307-0.15847 0.03307-0.11851 0-0.18879-0.06615-0.06959-0.06683-0.06959-0.17846 0-0.13022 0.08682-0.19637 0.08751-0.06615 0.26045-0.06615h0.17777v-0.0124q0-0.08751-0.05788-0.13505-0.05719-0.04823-0.16123-0.04823-0.06615 0-0.12885 0.01585-0.0627 0.01585-0.12058 0.04754v-0.11713q0.06959-0.02687 0.13505-0.03996 0.06546-0.01378 0.12747-0.01378 0.16743 0 0.25011 0.08682 0.08268 0.08682 0.08268 0.2632z"/>
   <path d="m-38.514 90.595q-0.02136-0.0124-0.04685-0.01792-0.02481-0.0062-0.05512-0.0062-0.10749 0-0.16536 0.07028-0.05719 0.06959-0.05719 0.2005v0.40652h-0.12747v-0.7717h0.12747v0.11989q0.03996-0.07028 0.10404-0.10404 0.06408-0.03445 0.15572-0.03445 0.01309 0 0.02894 0.0021 0.01585 0.0014 0.03514 0.0048z"/>
   <path d="m-37.899 90.594v-0.41755h0.12678v1.0721h-0.12678v-0.11576q-0.03996 0.0689-0.10128 0.10266-0.06063 0.03307-0.14607 0.03307-0.13987 0-0.22806-0.11162-0.08751-0.11162-0.08751-0.29352t0.08751-0.29352q0.08819-0.11162 0.22806-0.11162 0.08544 0 0.14607 0.03376 0.06132 0.03307 0.10128 0.10198zm-0.43201 0.26941q0 0.13987 0.05719 0.2198 0.05788 0.07924 0.15848 0.07924 0.1006 0 0.15847-0.07924 0.05788-0.07993 0.05788-0.2198 0-0.13987-0.05788-0.21911-0.05788-0.07993-0.15847-0.07993-0.1006 0-0.15848 0.07993-0.05719 0.07924-0.05719 0.21911z"/>
   <path d="m-37.019 90.499v0.11989q-0.05374-0.02756-0.11162-0.04134-0.05788-0.01378-0.11989-0.01378-0.09439 0-0.14194 0.02894-0.04685 0.02894-0.04685 0.08682 0 0.0441 0.03376 0.06959 0.03376 0.0248 0.13574 0.04754l0.04341 0.0096q0.13505 0.02894 0.19155 0.08199 0.05719 0.05236 0.05719 0.14676 0 0.10749-0.08544 0.17019-0.08475 0.0627-0.23358 0.0627-0.06201 0-0.12954-0.0124-0.06683-0.01171-0.14125-0.03583v-0.13091q0.07028 0.03652 0.13849 0.05512 0.06821 0.01792 0.13505 0.01792 0.08957 0 0.1378-0.03032 0.04823-0.03101 0.04823-0.08682 0-0.05168-0.03514-0.07924-0.03445-0.02756-0.15227-0.05306l-0.0441-0.01033q-0.11782-0.02481-0.17019-0.07579-0.05237-0.05168-0.05237-0.14125 0-0.10886 0.07717-0.16812 0.07717-0.05926 0.21911-0.05926 0.07028 0 0.13229 0.01034 0.06201 0.01033 0.11438 0.03101z"/>
   <path d="m-36.758 91.073h0.14538v0.17501h-0.14538z"/>
   <path d="m-35.772 90.506v0.11851q-0.05374-0.02963-0.10818-0.0441-0.05374-0.01516-0.10886-0.01516-0.12333 0-0.19155 0.07855-0.06821 0.07786-0.06821 0.21911 0 0.14125 0.06821 0.2198 0.06821 0.07786 0.19155 0.07786 0.05512 0 0.10886-0.01447 0.05443-0.01516 0.10818-0.04479v0.11713q-0.05305 0.02481-0.11024 0.03721-0.0565 0.0124-0.12058 0.0124-0.17432 0-0.27699-0.10955-0.10266-0.10955-0.10266-0.29559 0-0.18879 0.10335-0.29697 0.10404-0.10818 0.28456-0.10818 0.05857 0 0.11438 0.0124 0.05581 0.01171 0.10818 0.03583z"/>
   <path d="m-35.252 90.566q-0.10198 0-0.16123 0.07993-0.05926 0.07924-0.05926 0.21773 0 0.13849 0.05857 0.21842 0.05926 0.07924 0.16192 0.07924 0.10129 0 0.16054-0.07993 0.05926-0.07993 0.05926-0.21773 0-0.13712-0.05926-0.21704-0.05926-0.08061-0.16054-0.08061zm0-0.10749q0.16536 0 0.25976 0.10749 0.0944 0.10749 0.0944 0.29766 0 0.18948-0.0944 0.29766-0.09439 0.10749-0.25976 0.10749-0.16605 0-0.26045-0.10749-0.09371-0.10818-0.09371-0.29766 0-0.19017 0.09371-0.29766 0.0944-0.10749 0.26045-0.10749z"/>
   <path d="m-34.087 90.625q0.04754-0.08544 0.11369-0.12609 0.06614-0.04065 0.15572-0.04065 0.12058 0 0.18604 0.08475 0.06546 0.08406 0.06546 0.23978v0.46578h-0.12747v-0.46164q0-0.11093-0.03927-0.16468-0.03927-0.05374-0.11989-0.05374-0.09853 0-0.15572 0.06546-0.05719 0.06546-0.05719 0.17846v0.43615h-0.12747v-0.46164q0-0.11162-0.03927-0.16468-0.03927-0.05374-0.12127-0.05374-0.09715 0-0.15434 0.06615-0.05719 0.06546-0.05719 0.17777v0.43615h-0.12747v-0.7717h0.12747v0.11989q0.04341-0.07097 0.10404-0.10473 0.06063-0.03376 0.144-0.03376 0.08406 0 0.14263 0.04272 0.05926 0.04272 0.08751 0.12402z"/>
  </g>
  <path d="m144.51 36.83h115.75v120.34h-115.75z" fill="none" stop-color="#000000" stroke="#000"/>
  <path d="m168.16 66.804a6.8169 6.5059 0 0 1-6.8169 6.5059 6.8169 6.5059 0 0 1-6.8169-6.5059 6.8169 6.5059 0 0 1 6.8169-6.5059 6.8169 6.5059 0 0 1 6.8169 6.5059z" fill="none" stop-color="#000000" stroke="#000" stroke-width=".5"/>
  <g transform="matrix(2.8405 0 0 2.711 13.341 12.287)" stroke-width=".095346" aria-label="A">
   <path d="m53.379 21.358-1.0647-2.9694h-0.4242l-1.0647 2.9694h0.4242l0.28421-0.80174h1.1369l0.28421 0.80174zm-0.83567-1.1666h-0.88234l0.44117-1.2387z" stroke-width=".095346"/>
  </g>
  <path d="m168.16 91.998a6.8169 6.5059 0 0 1-6.8169 6.5059 6.8169 6.5059 0 0 1-6.8169-6.5059 6.8169 6.5059 0 0 1 6.8169-6.5059 6.8169 6.5059 0 0 1 6.8169 6.5059z" fill="none" stop-color="#000000" stroke="#000" stroke-width=".5"/>
  <g stroke-width=".095346">
   <g transform="matrix(2.8405 0 0 2.711 13.341 12.287)" aria-label="B">
    <path d="m52.098 30.888c0.48783 0 1.0266-0.12302 1.0266-0.88234 0-0.31815-0.11029-0.55146-0.49631-0.69993 0.22907-0.23755 0.24179-0.40299 0.24179-0.65327 0-0.62782-0.4242-0.73387-1.1199-0.73387h-0.67024v2.9694zm-0.23331-2.6088c0.32663 0 0.58964 0.02969 0.58964 0.40299 0 0.44541-0.23331 0.47086-0.47086 0.47086h-0.50056v-0.87385zm0.24604 1.2387c0.31391 0 0.59388 0.09332 0.59388 0.52601 0 0.42844-0.31815 0.47935-0.80598 0.47935h-0.41572v-1.0054z" stroke-width=".095346"/>
   </g>
   <g transform="matrix(2.8405 0 0 2.711 13.341 12.287)" aria-label="長押しする">
    <path d="m48.64 44.773v0.93134h-0.37253v0.14182h0.37253v0.58844l-0.27093 0.04022 0.0381 0.14817c0.25612-0.04445 0.62018-0.10583 0.95885-0.16722l-0.0063-0.14182-0.55668 0.09313v-0.56092h0.30268c0.1778 0.41487 0.50377 0.68157 0.98848 0.79587 0.02328-0.04445 0.06773-0.10795 0.1016-0.14182-0.2413-0.04657-0.4445-0.13547-0.60748-0.26035 0.15452-0.0762 0.33867-0.18415 0.47837-0.28787l-0.12912-0.0889c-0.11218 0.09313-0.29633 0.20743-0.45085 0.28998-0.0889-0.0889-0.16298-0.1905-0.22013-0.30692h0.89535v-0.14182h-1.3589v-0.18415h1.0859v-0.12912h-1.0859v-0.1778h1.0859v-0.127h-1.0859v-0.1778h1.1515v-0.13547z"/>
    <path d="m51.282 45.429h0.32173v0.32597h-0.32173zm0-0.14605v-0.3175h0.32173v0.3175zm0.8001 0.14605v0.32597h-0.32808v-0.32597zm0-0.14605h-0.32808v-0.3175h0.32808zm-0.95462-0.46567v1.2023h0.15452v-0.11642h0.32173v0.73025h0.15028v-0.73025h0.32808v0.11007h0.15875v-1.1959zm-0.48683-0.12912v0.42757h-0.26035v0.14817h0.26035v0.46778l-0.28787 0.0762 0.04657 0.15452 0.2413-0.06985v0.54822c0 0.02963-0.0085 0.0381-0.03598 0.0381-0.0254 0-0.10795 0.0021-0.19897 0 0.01905 0.04022 0.04022 0.10372 0.04657 0.14182 0.13335 0 0.2159-0.0021 0.26882-0.02752 0.05292-0.02328 0.07408-0.06562 0.07408-0.1524v-0.59478l0.24553-0.0762-0.02117-0.14393-0.22437 0.0635v-0.42545h0.23283v-0.14817h-0.23283v-0.42757z"/>
    <path d="m53.108 44.817-0.21378-0.0021c0.0127 0.06138 0.01693 0.13758 0.01693 0.2159 0 0.22225-0.02117 0.75777-0.02117 1.071 0 0.34502 0.20955 0.47202 0.51435 0.47202 0.46567 0 0.73872-0.2667 0.88477-0.46778l-0.12065-0.14393c-0.1524 0.22013-0.37042 0.43815-0.75777 0.43815-0.20108 0-0.34713-0.08255-0.34713-0.31538 0-0.31538 0.01482-0.81492 0.0254-1.0541 0.0021-0.06985 0.0085-0.14393 0.01905-0.21378z"/>
    <path d="m55.665 45.679c0.01905 0.19897-0.0635 0.29845-0.18627 0.29845-0.11853 0-0.2159-0.07832-0.2159-0.20955 0-0.13758 0.10372-0.22437 0.21378-0.22437 0.08467 0 0.15452 0.04022 0.18838 0.13547zm-0.99907-0.59478 0.0042 0.16298c0.26458-0.01905 0.62442-0.03387 0.94615-0.03598l0.0021 0.21378c-0.04233-0.01482-0.0889-0.02328-0.14182-0.02328-0.20108 0-0.37253 0.15875-0.37253 0.3683 0 0.23072 0.16933 0.35348 0.34713 0.35348 0.07197 0 0.13335-0.01905 0.18415-0.05715-0.08467 0.19262-0.2794 0.31115-0.56092 0.37465l0.14182 0.1397c0.49318-0.14817 0.63288-0.46567 0.63288-0.75142 0-0.10583-0.02328-0.19897-0.06773-0.27093l-0.0042-0.34925h0.02963c0.30903 0 0.50165 0.0042 0.62018 0.01058l0.0021-0.15663c-0.1016 0-0.36195-0.0021-0.62018-0.0021h-0.03175l0.0021-0.13758c0.0021-0.02752 0.0064-0.11007 0.01058-0.13335h-0.19262c0.0021 0.01693 0.01058 0.07832 0.0127 0.13335l0.0042 0.1397c-0.31538 0.0042-0.71332 0.01693-0.94827 0.02117z"/>
    <path d="m57.807 46.396c-0.05292 0.0085-0.11007 0.0127-0.17145 0.0127-0.1651 0-0.28152-0.0635-0.28152-0.1651 0-0.07408 0.07408-0.13547 0.16933-0.13547 0.16087 0 0.2667 0.12065 0.28363 0.28787zm-0.7239-1.4901 0.0063 0.17568c0.04445-0.0064 0.09313-0.01058 0.1397-0.0127 0.11218-0.0063 0.53552-0.0254 0.6477-0.02963-0.10795 0.09525-0.37253 0.3175-0.49107 0.41487-0.12277 0.10372-0.3937 0.3302-0.56938 0.47413l0.12065 0.12488c0.26882-0.27305 0.4572-0.42333 0.81068-0.42333 0.27517 0 0.47413 0.15663 0.47413 0.36407 0 0.17357-0.09525 0.29633-0.26458 0.36195-0.0254-0.20108-0.16722-0.37465-0.4318-0.37465-0.19685 0-0.32597 0.12912-0.32597 0.27517 0 0.17568 0.17568 0.30057 0.46355 0.30057 0.44873 0 0.72813-0.22013 0.72813-0.56092 0-0.28575-0.25188-0.49742-0.60325-0.49742-0.09525 0-0.19685 0.01058-0.29422 0.04445 0.1651-0.13758 0.45297-0.38312 0.5588-0.46355 0.0381-0.03175 0.08043-0.05927 0.11853-0.08678l-0.09737-0.12277c-0.02117 0.0064-0.0508 0.0127-0.1143 0.01693-0.11218 0.01058-0.61595 0.02752-0.72602 0.02752-0.04233 0-0.1016-0.0021-0.15028-0.0085z"/>
   </g>
   <g transform="matrix(2.8405 0 0 2.711 13.341 12.287)" aria-label="カードを取る">
    <path d="m61.687 17.186-0.19756-0.09878c-0.05997 0.01058-0.13053 0.01764-0.22578 0.01764h-0.83961c0.0071-0.11642 0.01411-0.23636 0.01764-0.36336 0.0035-0.08467 0.01058-0.20814 0.02117-0.28928h-0.33162c0.01411 0.08467 0.0247 0.21519 0.0247 0.2928 0 0.127-0.0071 0.24694-0.01411 0.35983h-0.62089c-0.13406 0-0.2787-0.0071-0.40217-0.02117v0.29986c0.12347-0.01411 0.26811-0.01411 0.40569-0.01411h0.59267c-0.09525 0.72672-0.34925 1.1677-0.6985 1.4852-0.10583 0.10231-0.25047 0.20108-0.36336 0.26106l0.25753 0.20814c0.58914-0.4057 0.95603-0.94192 1.083-1.9544h0.98778c0 0.37747-0.04586 1.2453-0.17992 1.5134-0.03881 0.0882-0.10231 0.11642-0.20461 0.11642-0.14817 0-0.33514-0.01411-0.52564-0.03881l0.03528 0.29281c0.18344 0.01058 0.38806 0.02469 0.56797 0.02469 0.19403 0 0.30692-0.06703 0.37747-0.21519 0.15875-0.33867 0.20108-1.3653 0.2152-1.7039 0-0.04586 0.0071-0.11289 0.01764-0.17286z"/>
    <path d="m62.558 17.701v0.34572c0.10936-0.01058 0.29633-0.01764 0.49036-0.01764h1.9368c0.15875 0 0.30692 0.01411 0.37747 0.01764v-0.34572c-0.07761 0.0071-0.20461 0.01764-0.381 0.01764h-1.9332c-0.19756 0-0.38453-0.01058-0.49036-0.01764z"/>
    <path d="m68.04 16.688-0.19403 0.08819c0.11642 0.15875 0.22578 0.35278 0.31397 0.53622l0.20108-0.09172c-0.08114-0.16581-0.23283-0.40217-0.32103-0.5327zm0.42686-0.17639-0.19403 0.09172c0.11994 0.15522 0.23283 0.3422 0.32808 0.52917l0.19756-0.09878c-0.08467-0.16228-0.23989-0.39864-0.33161-0.52211zm-1.6651 2.4518c0 0.13053-0.0071 0.30339-0.02117 0.41628h0.33867c-0.01058-0.11289-0.02117-0.30339-0.02117-0.41628v-1.1606c0.39158 0.11994 1.0019 0.35631 1.3829 0.56444l0.12348-0.29986c-0.37394-0.18697-1.0407-0.43744-1.5064-0.57856v-0.57856c0-0.10583 0.01058-0.25753 0.02469-0.36689h-0.34925c0.02117 0.10936 0.02822 0.26811 0.02822 0.36689v2.0532z"/>
    <path d="m72.365 17.673-0.11642-0.26458c-0.09878 0.05292-0.18344 0.09172-0.28928 0.13758-0.18344 0.08467-0.39864 0.16933-0.64206 0.28575-0.05292-0.20461-0.23989-0.3175-0.4692-0.3175-0.1517 0-0.35631 0.04586-0.49036 0.13053 0.11994-0.15875 0.23636-0.35983 0.3175-0.54681 0.38453-0.01411 0.82197-0.04233 1.1712-0.09878l0.0035-0.26106c-0.33161 0.05997-0.71614 0.09172-1.076 0.10936 0.05292-0.16581 0.08114-0.30339 0.10231-0.40922l-0.28928-0.02469c-0.0071 0.13053-0.03881 0.28928-0.08819 0.44097l-0.23283 0.0035c-0.16228 0-0.40922-0.01411-0.5962-0.0388v0.26458c0.19403 0.01411 0.42686 0.02117 0.57856 0.02117h0.15522c-0.13406 0.28575-0.37042 0.64911-0.81492 1.0795l0.23989 0.17639c0.11994-0.14111 0.21872-0.27164 0.32103-0.36689 0.15875-0.14817 0.38453-0.25753 0.60678-0.25753 0.15875 0 0.28575 0.06703 0.32103 0.21872-0.41275 0.2152-0.83256 0.47625-0.83256 0.89253 0 0.43039 0.4057 0.53975 0.91017 0.53975 0.30692 0 0.6985-0.02822 0.96661-0.0635l0.0071-0.28222c-0.31044 0.05292-0.68792 0.08467-0.96308 0.08467-0.36336 0-0.63853-0.04233-0.63853-0.3175 0-0.23283 0.2293-0.41981 0.55739-0.59267 0 0.18344-0.0035 0.41275-0.01058 0.55033h0.27164l-0.01058-0.67733c0.26811-0.127 0.51858-0.22931 0.71614-0.30339 0.09525-0.03881 0.22225-0.08819 0.31397-0.11289z"/>
    <path d="m74.905 17.023-0.254 0.04939c0.11642 0.58208 0.28222 1.0936 0.52564 1.5134-0.20814 0.2928-0.46214 0.51153-0.74083 0.65617 0.05997 0.05292 0.13406 0.15169 0.17286 0.21872 0.27164-0.15875 0.51858-0.36689 0.72672-0.63147 0.19403 0.26458 0.42686 0.48331 0.70908 0.64206 0.04233-0.06703 0.12347-0.16933 0.18344-0.21872-0.29281-0.1517-0.5327-0.37747-0.73025-0.6597 0.28575-0.45156 0.48683-1.0442 0.57503-1.8062l-0.16933-0.04586-0.04586 0.01058h-1.2735v0.25753h1.1959c-0.08467 0.52211-0.23636 0.96661-0.44097 1.3264-0.20108-0.37747-0.3422-0.82197-0.43392-1.3123zm-2.0285 1.7709 0.04939 0.26106c0.33514-0.04939 0.79375-0.11994 1.2418-0.19403v0.64206h0.25753v-2.7693h0.24694v-0.25047h-1.7216v0.25047h0.27164v2.0144zm0.59972-2.0602h0.69144v0.4692h-0.69144zm0 0.70908h0.69144v0.49389h-0.69144zm0 0.73378h0.69144v0.43744l-0.69144 0.09878z"/>
    <path d="m78.356 19.112c-0.08819 0.01411-0.18344 0.02117-0.28575 0.02117-0.27517 0-0.4692-0.10583-0.4692-0.27517 0-0.12347 0.12347-0.22578 0.28222-0.22578 0.26811 0 0.4445 0.20108 0.47272 0.47978zm-1.2065-2.4836 0.01058 0.2928c0.07408-0.01058 0.15522-0.01764 0.23283-0.02117 0.18697-0.01058 0.89253-0.04233 1.0795-0.04939-0.17992 0.15875-0.62089 0.52917-0.81844 0.69144-0.20461 0.17286-0.65617 0.55033-0.94897 0.79022l0.20108 0.20814c0.44803-0.45508 0.762-0.70556 1.3511-0.70556 0.45861 0 0.79022 0.26106 0.79022 0.60678 0 0.28928-0.15875 0.49389-0.44097 0.60325-0.04233-0.33514-0.2787-0.62442-0.71967-0.62442-0.32808 0-0.54328 0.2152-0.54328 0.45861 0 0.29281 0.2928 0.50094 0.77258 0.50094 0.74789 0 1.2136-0.36689 1.2136-0.93486 0-0.47625-0.41981-0.82903-1.0054-0.82903-0.15875 0-0.32808 0.01764-0.49036 0.07408 0.27517-0.2293 0.75494-0.63853 0.93133-0.77258 0.0635-0.05292 0.13406-0.09878 0.19756-0.14464l-0.16228-0.20461c-0.03528 0.01058-0.08467 0.02117-0.1905 0.02822-0.18697 0.01764-1.0266 0.04586-1.21 0.04586-0.07056 0-0.16933-0.0035-0.25047-0.01411z"/>
   </g>
   <g transform="matrix(2.8405 0 0 2.711 13.341 12.287)" aria-label="カードを置く">
    <path d="m61.687 21.316-0.19756-0.09878c-0.05997 0.01058-0.13053 0.01764-0.22578 0.01764h-0.83961c0.0071-0.11642 0.01411-0.23636 0.01764-0.36336 0.0035-0.08467 0.01058-0.20814 0.02117-0.28928h-0.33162c0.01411 0.08467 0.0247 0.21519 0.0247 0.2928 0 0.127-0.0071 0.24694-0.01411 0.35983h-0.62089c-0.13406 0-0.2787-0.0071-0.40217-0.02117v0.29986c0.12347-0.01411 0.26811-0.01411 0.40569-0.01411h0.59267c-0.09525 0.72672-0.34925 1.1677-0.6985 1.4852-0.10583 0.10231-0.25047 0.20108-0.36336 0.26106l0.25753 0.20814c0.58914-0.4057 0.95603-0.94192 1.083-1.9544h0.98778c0 0.37747-0.04586 1.2453-0.17992 1.5134-0.03881 0.08819-0.10231 0.11642-0.20461 0.11642-0.14817 0-0.33514-0.01411-0.52564-0.03881l0.03528 0.29281c0.18344 0.01058 0.38806 0.0247 0.56797 0.0247 0.19403 0 0.30692-0.06703 0.37747-0.2152 0.15875-0.33867 0.20108-1.3653 0.2152-1.7039 0-0.04586 0.0071-0.11289 0.01764-0.17286z"/>
    <path d="m62.558 21.831v0.34572c0.10936-0.01058 0.29633-0.01764 0.49036-0.01764h1.9368c0.15875 0 0.30692 0.01411 0.37747 0.01764v-0.34572c-0.07761 0.0071-0.20461 0.01764-0.381 0.01764h-1.9332c-0.19756 0-0.38453-0.01058-0.49036-0.01764z"/>
    <path d="m68.04 20.819-0.19403 0.08819c0.11642 0.15875 0.22578 0.35278 0.31397 0.53622l0.20108-0.09172c-0.08114-0.16581-0.23283-0.40217-0.32103-0.5327zm0.42686-0.17639-0.19403 0.09172c0.11994 0.15522 0.23283 0.3422 0.32808 0.52917l0.19756-0.09878c-0.08467-0.16228-0.23989-0.39864-0.33161-0.52211zm-1.6651 2.4518c0 0.13053-0.0071 0.30339-0.02117 0.41628h0.33867c-0.01058-0.11289-0.02117-0.30339-0.02117-0.41628v-1.1606c0.39158 0.11994 1.0019 0.35631 1.3829 0.56444l0.12347-0.29986c-0.37394-0.18697-1.0407-0.43744-1.5064-0.57856v-0.57856c0-0.10583 0.01058-0.25753 0.02469-0.36689h-0.34925c0.02117 0.10936 0.02822 0.26811 0.02822 0.36689v2.0532z"/>
    <path d="m72.365 21.803-0.11642-0.26458c-0.09878 0.05292-0.18344 0.09172-0.28928 0.13758-0.18344 0.08467-0.39864 0.16933-0.64206 0.28575-0.05292-0.20461-0.23989-0.3175-0.4692-0.3175-0.1517 0-0.35631 0.04586-0.49036 0.13053 0.11994-0.15875 0.23636-0.35983 0.3175-0.54681 0.38453-0.01411 0.82197-0.04233 1.1712-0.09878l0.0035-0.26106c-0.33161 0.05997-0.71614 0.09172-1.076 0.10936 0.05292-0.16581 0.08114-0.30339 0.10231-0.40922l-0.28928-0.0247c-0.0071 0.13053-0.03881 0.28928-0.08819 0.44097l-0.23283 0.0035c-0.16228 0-0.40922-0.01411-0.5962-0.0388v0.26458c0.19403 0.01411 0.42686 0.02117 0.57856 0.02117h0.15522c-0.13406 0.28575-0.37042 0.64911-0.81492 1.0795l0.23989 0.17639c0.11994-0.14111 0.21872-0.27164 0.32103-0.36689 0.15875-0.14817 0.38453-0.25753 0.60678-0.25753 0.15875 0 0.28575 0.06703 0.32103 0.21872-0.41275 0.2152-0.83256 0.47625-0.83256 0.89253 0 0.43039 0.4057 0.53975 0.91017 0.53975 0.30692 0 0.6985-0.02822 0.96661-0.0635l0.0071-0.28222c-0.31044 0.05292-0.68792 0.08467-0.96308 0.08467-0.36336 0-0.63853-0.04233-0.63853-0.3175 0-0.23283 0.2293-0.41981 0.55739-0.59267 0 0.18344-0.0035 0.41275-0.01058 0.55033h0.27164l-0.01058-0.67733c0.26811-0.127 0.51858-0.22931 0.71614-0.30339 0.09525-0.03881 0.22225-0.08819 0.31397-0.11289z"/>
    <path d="m75.071 20.734h0.5962v0.3175h-0.5962zm-0.8255 0h0.58208v0.3175h-0.58208zm-0.80433 0h0.56092v0.3175h-0.56092zm0.64911 1.6334h1.4358v0.19756h-1.4358zm0 0.35631h1.4358v0.19756h-1.4358zm0-0.70556h1.4358v0.1905h-1.4358zm-0.25047-0.16228v1.2277h1.9403v-1.2277h-1.1536l0.03881-0.20814h1.4076v-0.20814h-1.3723l0.02822-0.19403h1.203v-0.70203h-2.7446v0.70203h1.2735l-0.02469 0.19403h-1.4146v0.20814h1.3829l-0.03528 0.20814zm-0.62442 0.05292v1.7357h0.26811v-0.1517h2.6811v-0.21167h-2.6811v-1.3723z"/>
    <path d="m78.793 20.755-0.26106-0.23283c-0.04233 0.06703-0.13053 0.16581-0.20108 0.23636-0.23989 0.24342-0.77611 0.66675-1.0407 0.889-0.3175 0.26811-0.35983 0.41981-0.0247 0.6985 0.32808 0.27164 0.86431 0.73025 1.1113 0.98425 0.0882 0.08467 0.16933 0.17286 0.24342 0.25753l0.25047-0.23283c-0.37394-0.37394-0.99836-0.87842-1.3194-1.1395-0.22578-0.1905-0.22225-0.24694-0.01058-0.42686 0.26106-0.21872 0.76906-0.62089 1.0089-0.83256 0.05997-0.04939 0.16933-0.14111 0.24342-0.20108z"/>
   </g>
   <g transform="matrix(2.8405 0 0 2.711 13.341 12.287)" aria-label="カードを取るのをやめる">
    <path d="m60.897 27.196-0.13829-0.06914c-0.04198 0.0074-0.09137 0.01235-0.15804 0.01235h-0.58773c0.0049-0.08149 0.0099-0.16545 0.01235-0.25435 0.0025-0.05927 0.0074-0.1457 0.01482-0.20249h-0.23213c0.0099 0.05927 0.01729 0.15064 0.01729 0.20496 0 0.0889-0.0049 0.17286-0.0099 0.25188h-0.43462c-0.09384 0-0.19509-0.0049-0.28152-0.01482v0.2099c0.08643-0.0099 0.18768-0.0099 0.28398-0.0099h0.41488c-0.06667 0.5087-0.24447 0.81738-0.48895 1.0396-0.07408 0.07161-0.17533 0.14076-0.25435 0.18274l0.18027 0.1457c0.4124-0.28398 0.66922-0.65934 0.75812-1.3681h0.69144c0 0.26423-0.0321 0.87171-0.12594 1.0594-0.02716 0.06174-0.07161 0.08149-0.14323 0.08149-0.10372 0-0.2346-0.0099-0.36795-0.02716l0.02469 0.20496c0.12841 0.0074 0.27164 0.01729 0.39758 0.01729 0.13582 0 0.21484-0.04692 0.26423-0.15064 0.11112-0.23707 0.14076-0.95567 0.15064-1.1927 0-0.0321 0.0049-0.07902 0.01235-0.121z"/>
    <path d="m61.507 27.557v0.242c0.07655-0.0074 0.20743-0.01235 0.34325-0.01235h1.3557c0.11112 0 0.21484 0.0099 0.26423 0.01235v-0.242c-0.05433 0.0049-0.14323 0.01235-0.2667 0.01235h-1.3533c-0.13829 0-0.26917-0.0074-0.34325-0.01235z"/>
    <path d="m65.345 26.848-0.13582 0.06174c0.08149 0.11112 0.15804 0.24694 0.21978 0.37535l0.14076-0.06421c-0.0568-0.11606-0.16298-0.28152-0.22472-0.37288zm0.2988-0.12347-0.13582 0.06421c0.08396 0.10866 0.16298 0.23954 0.22966 0.37042l0.13829-0.06914c-0.059266-0.1136-0.16792-0.27906-0.23213-0.36549zm-1.1656 1.7163c0 0.09137-0.0049 0.21237-0.01482 0.29139h0.23707c-0.0074-0.07902-0.01482-0.21237-0.01482-0.29139v-0.81244c0.27411 0.08396 0.70132 0.24941 0.96802 0.39511l0.08643-0.2099c-0.26176-0.13088-0.72848-0.30621-1.0545-0.40499v-0.40499c0-0.07408 0.0074-0.18027 0.01729-0.25682h-0.24447c0.01482 0.07655 0.01975 0.18768 0.01975 0.25682v1.4372z"/>
    <path d="m68.372 27.537-0.08149-0.18521c-0.06914 0.03704-0.12841 0.06421-0.20249 0.09631-0.12841 0.05927-0.27905 0.11853-0.44944 0.20002-0.03704-0.14323-0.16792-0.22225-0.32844-0.22225-0.10619 0-0.24941 0.0321-0.34325 0.09137 0.08396-0.11112 0.16545-0.25188 0.22225-0.38276 0.26917-0.0099 0.57538-0.02963 0.81985-0.06914l0.0025-0.18274c-0.23213 0.04198-0.5013 0.06421-0.75318 0.07655 0.03704-0.11606 0.0568-0.21237 0.07161-0.28646l-0.20249-0.01729c-0.0049 0.09137-0.02716 0.20249-0.06174 0.30868l-0.16298 0.0025c-0.1136 0-0.28646-0.0099-0.41734-0.02716v0.18521c0.13582 0.0099 0.2988 0.01482 0.40499 0.01482h0.10866c-0.09384 0.20002-0.25929 0.45438-0.57044 0.75565l0.16792 0.12347c0.08396-0.09878 0.1531-0.19015 0.22472-0.25682 0.11112-0.10372 0.26917-0.18027 0.42474-0.18027 0.11112 0 0.20002 0.04692 0.22472 0.1531-0.28892 0.15064-0.58279 0.33338-0.58279 0.62477 0 0.30127 0.28399 0.37782 0.63712 0.37782 0.21484 0 0.48895-0.01975 0.67663-0.04445l0.0049-0.19756c-0.21731 0.03704-0.48154 0.05927-0.67416 0.05927-0.25435 0-0.44697-0.02963-0.44697-0.22225 0-0.16298 0.16051-0.29386 0.39017-0.41487 0 0.12841-0.0025 0.28892-0.0074 0.38523h0.19015l-0.0074-0.47413c0.18768-0.0889 0.36301-0.16051 0.5013-0.21237 0.06667-0.02716 0.15558-0.06174 0.21978-0.07902z"/>
    <path d="m70.15 27.083-0.1778 0.03457c0.08149 0.40746 0.19756 0.76553 0.36795 1.0594-0.1457 0.20496-0.3235 0.35807-0.51858 0.45932 0.04198 0.03704 0.09384 0.10619 0.121 0.1531 0.19015-0.11112 0.36301-0.25682 0.5087-0.44203 0.13582 0.18521 0.2988 0.33831 0.49636 0.44944 0.02963-0.04692 0.08643-0.11853 0.12841-0.15311-0.20496-0.10619-0.37289-0.26423-0.51118-0.46178 0.20002-0.31609 0.34078-0.73095 0.40252-1.2644l-0.11853-0.0321-0.0321 0.0074h-0.89147v0.18027h0.83714c-0.05927 0.36548-0.16545 0.67663-0.30868 0.92851-0.14076-0.26423-0.23954-0.57538-0.30374-0.91863zm-1.4199 1.2397 0.03457 0.18274c0.2346-0.03457 0.55562-0.08396 0.86924-0.13582v0.44944h0.18027v-1.9385h0.17286v-0.17533h-1.2051v0.17533h0.19015v1.41zm0.4198-1.4422h0.48401v0.32844h-0.48401zm0 0.49636h0.48401v0.34572h-0.48401zm0 0.51364h0.48401v0.30621l-0.48401 0.06914z"/>
    <path d="m72.565 28.545c-0.06174 0.0099-0.12841 0.01482-0.20002 0.01482-0.19262 0-0.32844-0.07408-0.32844-0.19262 0-0.08643 0.08643-0.15804 0.19756-0.15804 0.18768 0 0.31115 0.14076 0.3309 0.33584zm-0.84455-1.7385 0.0074 0.20496c0.05186-0.0074 0.10866-0.01235 0.16298-0.01482 0.13088-0.0074 0.62477-0.02963 0.75565-0.03457-0.12594 0.11112-0.43462 0.37042-0.57291 0.48401-0.14323 0.121-0.45932 0.38523-0.66428 0.55316l0.14076 0.1457c0.31363-0.31856 0.53341-0.49389 0.9458-0.49389 0.32103 0 0.55316 0.18274 0.55316 0.42474 0 0.20249-0.11112 0.34572-0.30868 0.42227-0.02963-0.2346-0.19509-0.43709-0.50377-0.43709-0.22966 0-0.38029 0.15064-0.38029 0.32103 0 0.20496 0.20496 0.35066 0.54081 0.35066 0.52352 0 0.84949-0.25682 0.84949-0.6544 0-0.33338-0.29386-0.58032-0.70379-0.58032-0.11112 0-0.22966 0.01235-0.34325 0.05186 0.19262-0.16051 0.52846-0.44697 0.65193-0.54081 0.04445-0.03704 0.09384-0.06914 0.13829-0.10125l-0.11359-0.14323c-0.02469 0.0074-0.05927 0.01482-0.13335 0.01975-0.13088 0.01235-0.71861 0.0321-0.84702 0.0321-0.04939 0-0.11853-0.0025-0.17533-0.0099z"/>
    <path d="m74.778 27.041c-0.02716 0.22719-0.07655 0.46178-0.13829 0.66675-0.12594 0.41734-0.25682 0.58279-0.37289 0.58279-0.11112 0-0.25435-0.13829-0.25435-0.44944 0-0.33584 0.29139-0.74083 0.76553-0.8001zm0.20496-0.0049c0.4198 0.03704 0.65934 0.34572 0.65934 0.71861 0 0.42721-0.31115 0.66181-0.62724 0.73342-0.0568 0.01235-0.13335 0.02469-0.21237 0.0321l0.11606 0.18274c0.58526-0.07655 0.92604-0.42227 0.92604-0.94086 0-0.5013-0.36795-0.90875-0.9458-0.90875-0.60254 0-1.0791 0.46919-1.0791 1.0051 0 0.40746 0.21978 0.65934 0.43956 0.65934 0.22966 0 0.42474-0.25929 0.57538-0.768 0.06914-0.22966 0.11606-0.48154 0.14817-0.71367z"/>
    <path d="m78.25 27.537-0.08149-0.18521c-0.06914 0.03704-0.12841 0.06421-0.20249 0.09631-0.12841 0.05927-0.27905 0.11853-0.44944 0.20002-0.03704-0.14323-0.16792-0.22225-0.32844-0.22225-0.10619 0-0.24941 0.0321-0.34325 0.09137 0.08396-0.11112 0.16545-0.25188 0.22225-0.38276 0.26917-0.0099 0.57538-0.02963 0.81985-0.06914l0.0025-0.18274c-0.23213 0.04198-0.5013 0.06421-0.75318 0.07655 0.03704-0.11606 0.0568-0.21237 0.07161-0.28646l-0.20249-0.01729c-0.0049 0.09137-0.02716 0.20249-0.06174 0.30868l-0.16298 0.0025c-0.11359 0-0.28646-0.0099-0.41734-0.02716v0.18521c0.13582 0.0099 0.2988 0.01482 0.40499 0.01482h0.10866c-0.09384 0.20002-0.25929 0.45438-0.57044 0.75565l0.16792 0.12347c0.08396-0.09878 0.1531-0.19015 0.22472-0.25682 0.11112-0.10372 0.26917-0.18027 0.42474-0.18027 0.11112 0 0.20002 0.04692 0.22472 0.1531-0.28892 0.15064-0.58279 0.33338-0.58279 0.62477 0 0.30127 0.28399 0.37782 0.63712 0.37782 0.21484 0 0.48895-0.01975 0.67663-0.04445l0.0049-0.19756c-0.21731 0.03704-0.48154 0.05927-0.67416 0.05927-0.25435 0-0.44697-0.02963-0.44697-0.22225 0-0.16298 0.16051-0.29386 0.39017-0.41487 0 0.12841-0.0025 0.28892-0.0074 0.38523h0.19015l-0.0074-0.47413c0.18768-0.0889 0.36301-0.16051 0.5013-0.21237 0.06668-0.02716 0.15557-0.06174 0.21978-0.07902z"/>
    <path d="m79.912 27.058 0.14076-0.11112c-0.09384-0.09631-0.28152-0.25188-0.36301-0.31362l-0.14076 0.10125c0.10619 0.07902 0.2667 0.22966 0.36301 0.3235zm-1.2224 0.5087 0.09384 0.20249c0.11359-0.05186 0.28646-0.14076 0.4766-0.23213l0.09384 0.20496c0.14076 0.3235 0.25929 0.72108 0.33584 1.0125l0.21237-0.0568c-0.08396-0.27164-0.23954-0.73095-0.37536-1.0372l-0.09384-0.20496c0.28646-0.13335 0.5902-0.24941 0.80751-0.24941 0.242 0 0.35807 0.13335 0.35807 0.27905 0 0.1778-0.11359 0.32597-0.38276 0.32597-0.13088 0-0.25435-0.03704-0.35066-0.07902l-0.0074 0.19262c0.09384 0.03457 0.23213 0.06914 0.37042 0.06914 0.38523 0 0.56797-0.21484 0.56797-0.49883 0-0.26917-0.2099-0.46426-0.55068-0.46426-0.25682 0-0.5902 0.13335-0.889 0.26423-0.04939-0.10372-0.09878-0.20249-0.14323-0.28398-0.02716-0.04445-0.06914-0.12594-0.08643-0.16545l-0.20249 0.08149c0.03951 0.04939 0.0889 0.12594 0.121 0.17533 0.04198 0.06914 0.0889 0.16298 0.14076 0.27164-0.11112 0.04939-0.2099 0.09384-0.29386 0.12594-0.04445 0.01729-0.13088 0.04939-0.20249 0.06668z"/>
    <path d="m82.349 27.233c-0.07655 0.25435-0.18274 0.51117-0.28892 0.6865l-0.04939-0.08149c-0.05927-0.09878-0.13088-0.26423-0.19262-0.43462 0.16298-0.10125 0.33831-0.16051 0.53093-0.17039zm-0.69638-0.40746-0.20496 0.06667c0.02963 0.06421 0.05927 0.1457 0.08149 0.22225l0.07408 0.22719c-0.22472 0.18274-0.38029 0.48154-0.38029 0.76553 0 0.28892 0.15558 0.4445 0.34325 0.4445 0.18521 0 0.33584-0.12347 0.48895-0.30868 0.03704 0.05186 0.07655 0.09878 0.11606 0.14323l0.15558-0.12841c-0.05186-0.04939-0.10372-0.10866-0.1531-0.17286 0.14076-0.20249 0.2667-0.52599 0.36054-0.83961 0.31856 0.05433 0.51858 0.29633 0.51858 0.61736 0 0.38029-0.28646 0.65193-0.80257 0.69638l0.11606 0.17533c0.52846-0.07408 0.88159-0.37289 0.88159-0.8643 0-0.42474-0.27164-0.72848-0.66675-0.79269l0.03951-0.17039c0.0099-0.04692 0.02469-0.13088 0.04198-0.19262l-0.21237-0.01976c0 0.0568-0.0074 0.13829-0.01482 0.18768-0.0099 0.05927-0.02469 0.11853-0.03951 0.18027-0.21484 0.0025-0.42474 0.05186-0.63465 0.17533l-0.05927-0.19262c-0.01729-0.06915-0.03704-0.15064-0.04939-0.21978zm0.29386 1.2619c-0.10866 0.1457-0.23954 0.26917-0.36054 0.26917-0.11112 0-0.18521-0.10125-0.18521-0.26423 0-0.19262 0.10372-0.4198 0.2667-0.57291 0.07161 0.18768 0.15064 0.36301 0.22225 0.47413z"/>
    <path d="m84.913 28.545c-0.06174 0.0099-0.12841 0.01482-0.20002 0.01482-0.19262 0-0.32844-0.07408-0.32844-0.19262 0-0.08643 0.08643-0.15804 0.19756-0.15804 0.18768 0 0.31115 0.14076 0.3309 0.33584zm-0.84455-1.7385 0.0074 0.20496c0.05186-0.0074 0.10866-0.01235 0.16298-0.01482 0.13088-0.0074 0.62477-0.02963 0.75565-0.03457-0.12594 0.11112-0.43462 0.37042-0.57291 0.48401-0.14323 0.121-0.45932 0.38523-0.66428 0.55316l0.14076 0.1457c0.31362-0.31856 0.5334-0.49389 0.9458-0.49389 0.32103 0 0.55315 0.18274 0.55315 0.42474 0 0.20249-0.11112 0.34572-0.30868 0.42227-0.02963-0.2346-0.19508-0.43709-0.50376-0.43709-0.22966 0-0.38029 0.15064-0.38029 0.32103 0 0.20496 0.20496 0.35066 0.54081 0.35066 0.52352 0 0.84949-0.25682 0.84949-0.6544 0-0.33338-0.29386-0.58032-0.70379-0.58032-0.11112 0-0.22966 0.01235-0.34325 0.05186 0.19262-0.16051 0.52846-0.44697 0.65193-0.54081 0.04445-0.03704 0.09384-0.06914 0.13829-0.10125l-0.11359-0.14323c-0.02469 0.0074-0.05927 0.01482-0.13335 0.01975-0.13088 0.01235-0.71861 0.0321-0.84702 0.0321-0.04939 0-0.11853-0.0025-0.17533-0.0099z"/>
   </g>
   <g transform="matrix(2.8405 0 0 2.711 13.341 12.287)" aria-label="トランプで遊ぶ">
    <path d="m59.083 32.773c0 0.13053-0.0071 0.30339-0.02469 0.41628h0.3422c-0.01411-0.11642-0.02117-0.30692-0.02117-0.41628l-0.0035-1.1642c0.39158 0.12347 1.0019 0.35983 1.3864 0.56797l0.11994-0.29986c-0.37042-0.18697-1.0407-0.44097-1.5064-0.58208v-0.57503c0-0.10583 0.01411-0.25753 0.02469-0.36689h-0.34572c0.02117 0.10936 0.02822 0.26811 0.02822 0.36689v2.0532z"/>
    <path d="m62.237 30.455v0.2928c0.09525-0.0071 0.20814-0.01058 0.3175-0.01058h1.3829c0.11994 0 0.23989 0.0035 0.32456 0.01058v-0.2928c-0.08467 0.01411-0.20814 0.01764-0.32103 0.01764h-1.3864c-0.11289 0-0.22578-0.0035-0.3175-0.01764zm2.2825 0.93133-0.20108-0.127c-0.03881 0.02117-0.11289 0.02822-0.19403 0.02822h-1.8591c-0.09525 0-0.2152-0.0071-0.34572-0.02117v0.29633c0.127-0.0071 0.26106-0.01058 0.34572-0.01058h1.8733c-0.0635 0.254-0.20461 0.55386-0.41981 0.77964-0.29986 0.3175-0.74083 0.54328-1.2418 0.64558l0.21872 0.25047c0.44803-0.12347 0.89253-0.33161 1.2629-0.73731 0.26106-0.28575 0.41981-0.65264 0.51506-1.0019 0.0071-0.02469 0.02822-0.07055 0.04586-0.1023z"/>
    <path d="m65.751 30.498-0.20108 0.2152c0.26106 0.17639 0.70203 0.55386 0.87842 0.73731l0.22225-0.22225c-0.19756-0.19756-0.64911-0.56444-0.89958-0.73025zm-0.30339 2.3636 0.18697 0.28928c0.58561-0.10936 1.0336-0.32456 1.3864-0.54681 0.53269-0.33514 0.94544-0.81492 1.1853-1.2559l-0.16933-0.29986c-0.20461 0.43392-0.635 0.95603-1.1783 1.2982-0.33514 0.20814-0.79375 0.42333-1.4111 0.51506z"/>
    <path d="m71.212 30.55c0-0.13053 0.10583-0.23636 0.23283-0.23636 0.13053 0 0.23636 0.10583 0.23636 0.23636 0 0.127-0.10583 0.23283-0.23636 0.23283-0.127 0-0.23283-0.10583-0.23283-0.23283zm-0.16228 0c0 0.0388 0.0071 0.07761 0.01764 0.11289l-0.11289 0.0035h-1.7709c-0.11642 0-0.254-0.01058-0.35278-0.0247v0.31397c0.09172-0.0035 0.21167-0.01058 0.35278-0.01058h1.8027c-0.04586 0.33867-0.21167 0.82903-0.46214 1.1501-0.29281 0.37747-0.69144 0.67733-1.3758 0.84667l0.23989 0.26458c0.64911-0.20108 1.0689-0.52917 1.3899-0.94192 0.27869-0.36336 0.45156-0.93133 0.52564-1.3018l0.0071-0.03881c0.04233 0.01411 0.08819 0.02117 0.13406 0.02117 0.21872 0 0.39864-0.17639 0.39864-0.39511 0-0.21872-0.17992-0.39864-0.39864-0.39864s-0.39511 0.17992-0.39511 0.39864z"/>
    <path d="m72.179 30.762 0.03175 0.30692c0.381-0.08114 1.2806-0.1658 1.6581-0.20814-0.32456 0.19403-0.6597 0.64206-0.6597 1.1924 0 0.7867 0.74436 1.1359 1.397 1.1606l0.1023-0.29281c-0.57503-0.02117-1.2171-0.23989-1.2171-0.92781 0-0.41981 0.30692-0.95603 0.80786-1.1183 0.17992-0.05292 0.49036-0.05645 0.69144-0.05645v-0.28222c-0.23636 0.01058-0.56797 0.03175-0.9525 0.0635-0.64911 0.05292-1.3159 0.11994-1.5452 0.14464-0.06703 0.0071-0.17992 0.01411-0.31397 0.01764zm2.3036 0.49036-0.17992 0.07761c0.10583 0.14464 0.20814 0.32808 0.28928 0.49742l0.17992-0.08467c-0.07408-0.15522-0.20814-0.37394-0.28928-0.49036zm0.38453-0.14817-0.17286 0.08114c0.10936 0.14817 0.21167 0.32103 0.29633 0.49389l0.18344-0.08819c-0.08114-0.15522-0.22225-0.37042-0.30692-0.48683z"/>
    <path d="m75.597 30.335c0.1905 0.18344 0.39864 0.4445 0.47978 0.62089l0.22225-0.14464c-0.08467-0.17992-0.29986-0.43039-0.49389-0.60678zm0.64911 1.1783h-0.66322v0.24694h0.41275v0.92075c-0.14817 0.14817-0.31044 0.29633-0.44803 0.4057l0.13758 0.25047c0.15875-0.15875 0.31044-0.31044 0.45156-0.46567 0.22578 0.28222 0.55386 0.4057 1.0231 0.42333 0.40922 0.01411 1.1889 0.0071 1.591-0.0071 0.01411-0.07761 0.05292-0.19403 0.08467-0.254-0.43392 0.02822-1.2771 0.03881-1.6792 0.02469-0.42333-0.01764-0.73731-0.13758-0.91017-0.40217zm1.6157-1.4076c-0.05292 0.24694-0.14111 0.48683-0.25753 0.67733v-0.18344h-0.47978v-0.47978h-0.24694v0.47978h-0.48331v0.22578h0.32808v0.52564c0 0.41628-0.04233 0.95603-0.37394 1.3511 0.05644 0.03528 0.13053 0.10583 0.16933 0.15522 0.35631-0.41275 0.41981-0.97367 0.42686-1.4358h0.33867c-0.0247 0.83256-0.04939 1.1254-0.09878 1.1994-0.02117 0.03528-0.04586 0.03881-0.0882 0.03881-0.04233 0-0.14111 0-0.24694-0.01058 0.03528 0.05997 0.05644 0.15522 0.05997 0.22225 0.11289 0.0035 0.22578 0.0035 0.29281-0.0035 0.08114-0.0071 0.13406-0.03528 0.18344-0.1023 0.07761-0.10583 0.10231-0.4445 0.13053-1.457v-0.10936h-0.5715v-0.37398h0.635c-0.03528 0.05292-0.07056 0.1023-0.10936 0.14464 0.05292 0.03175 0.14817 0.10583 0.1905 0.14464 0.08467-0.10583 0.16581-0.23636 0.23283-0.38453h0.88547v-0.22578h-0.79375c0.04233-0.11289 0.07761-0.22931 0.10583-0.34925zm0.22578 1.3864v0.29986h-0.47625v0.21872h0.47625v0.59972c0 0.03175-0.01058 0.04233-0.05292 0.04233-0.04233 0.0035-0.17286 0.0035-0.32103 0 0.03175 0.0635 0.06703 0.15875 0.07761 0.22225 0.20108 0 0.33514-0.0035 0.41628-0.04233 0.09172-0.03528 0.10936-0.1023 0.10936-0.22225v-0.59972h0.48331v-0.21872h-0.48331v-0.14464c0.1517-0.13758 0.3175-0.33161 0.43039-0.51506l-0.14464-0.10583-0.04586 0.01411h-0.82903v0.20814h0.67028c-0.05644 0.08467-0.127 0.16933-0.19756 0.24342z"/>
    <path d="m80.652 31.182 0.17992 0.16581c0.13053-0.09172 0.33161-0.25047 0.41275-0.32103l-0.06703-0.17992c-0.20814-0.15522-0.59972-0.34925-0.87136-0.46214l-0.16228 0.20461c0.27164 0.10936 0.60325 0.28575 0.75494 0.41275-0.05292 0.04233-0.15169 0.11642-0.24694 0.17992zm-0.68086 1.6828 0.04233 0.2928c0.15875 0.03175 0.34925 0.05644 0.57503 0.05644 0.254 0 0.60678-0.09878 0.60678-0.5327 0-0.3175-0.23283-0.62794-0.56444-0.9772-0.08114-0.0882-0.16933-0.18344-0.25753-0.27164l-0.20814 0.17992c0.09525 0.08467 0.20461 0.18697 0.28222 0.26811 0.19756 0.21519 0.45156 0.5327 0.45156 0.77258 0 0.22578-0.19403 0.2928-0.35631 0.2928-0.22225 0-0.39158-0.02822-0.5715-0.08114zm2.0355 0.13406 0.26458-0.14464c-0.11289-0.31044-0.37747-0.81492-0.62089-1.1007l-0.2293 0.13053c0.24342 0.27164 0.48683 0.77964 0.58561 1.1148zm-1.9156-0.68792-0.1658-0.21167c-0.19756 0.21872-0.61031 0.5327-0.89958 0.69144l0.16581 0.23283c0.34219-0.20461 0.69497-0.50094 0.89958-0.71261zm1.5628-1.5734-0.18697 0.08114c0.09525 0.13758 0.21872 0.34925 0.28575 0.49389l0.1905-0.08467c-0.07056-0.14464-0.19756-0.35983-0.28928-0.49036zm0.38806-0.14111-0.18344 0.08114c0.10231 0.13053 0.2152 0.33514 0.29281 0.48683l0.1905-0.08467c-0.06703-0.13053-0.20108-0.35278-0.29986-0.48331z"/>
   </g>
  </g>
  <path d="m144.87 36.272h114.26v18.476h-114.26z" stop-color="#000000" stroke-width=".5"/>
  <g transform="matrix(2.8405 0 0 2.711 13.341 12.287)" fill="#fff" stroke-width=".095346" aria-label="管理">
   <path d="m62.039 11.939v2.9295h0.40076v-0.19191h2.6585v0.18062h0.42333v-1.3942h-3.0819v-0.38947h2.7206v-1.1345zm3.0593 2.4045h-2.6585v-0.54751h2.6585zm-1.0894-4.7018c-0.11289 0.28222-0.28787 0.55315-0.50236 0.78458v-0.32173h-1.4901c0.06209-0.11853 0.11853-0.23707 0.16933-0.3556l-0.39511-0.10724c-0.17498 0.44591-0.48542 0.88618-0.81844 1.1797 0.09596 0.0508 0.27093 0.16933 0.34996 0.23142 0.16369-0.16369 0.33302-0.37253 0.48542-0.60396h0.23707c0.11289 0.19191 0.22578 0.42898 0.26529 0.58138l0.38947-0.11289c-0.04515-0.12982-0.12982-0.3048-0.22578-0.46849h1.0104c-0.11289 0.11853-0.23142 0.22578-0.3556 0.31609l0.23142 0.12418v0.36689h-2.1392v1.0612h0.40076v-0.72813h3.9511v0.72813h0.41204v-1.0612h-2.2126v-0.44591h-0.09031c0.11289-0.10724 0.22013-0.23142 0.32173-0.36124h0.45156c0.15804 0.19191 0.31609 0.44027 0.38947 0.59831l0.38382-0.12982c-0.06209-0.12982-0.18062-0.31044-0.31044-0.46849h1.2418v-0.34431h-1.9248c0.06773-0.11853 0.12982-0.23707 0.18062-0.36124zm-1.5692 2.6247h2.2973v0.48542h-2.2973z"/>
   <path d="m69.089 11.363h0.8636v0.72813h-0.8636zm1.2305 0h0.8636v0.72813h-0.8636zm-1.2305-1.0612h0.8636v0.71684h-0.8636zm1.2305 0h0.8636v0.71684h-0.8636zm-2.1223 3.985v0.38947h3.6632v-0.38947h-1.5071v-0.77893h1.3152v-0.38382h-1.3152v-0.66604h1.2361v-2.5287h-2.89v2.5287h1.2192v0.66604h-1.2869v0.38382h1.2869v0.77893zm-1.5974-0.44027 0.10724 0.42898c0.49671-0.16369 1.1458-0.38382 1.7554-0.58702l-0.07338-0.41204-0.62089 0.20884v-1.4055h0.57009v-0.39511h-0.57009v-1.2361h0.65476v-0.39511h-1.7611v0.39511h0.69991v1.2361h-0.64347v0.39511h0.64347v1.5353c-0.28787 0.09031-0.54751 0.16933-0.762 0.23142z"/>
  </g>
  <g transform="matrix(2.8405 0 0 2.711 13.341 12.287)" stroke-width=".095346" aria-label="R">
   <path d="m53.97 50.939-0.69145-1.2641c0.3436-0.1612 0.54298-0.47086 0.54298-0.83567 0-0.66599-0.40723-0.86961-1.0266-0.86961h-0.96293v2.9694h0.4242v-1.1581h0.62357l0.65751 1.1581zm-1.1793-2.6428c0.40299 0 0.61085 0.19937 0.61085 0.54298 0 0.41572-0.28421 0.55146-0.5048 0.55146h-0.64054v-1.0944z" stroke-width=".095346"/>
  </g>
  <path d="m179.96 151.78 0.89878-7.4383s-3.9574-0.14125-8.9443-0.70314c-4.3754-0.49302-6.0912-3.9613-11.149-3.0937-5.058 0.8676-10.101 3.8078-10.213 7.8695-0.11179 4.0303 1.8094 3.95 4.8305 3.95 3.0211 0 23.804 0.45969 24.578-0.58431z" fill="none" stroke="#000" stroke-width=".5"/>
  <path d="m151.53 122.73-0.89878-7.4383s3.9574-0.14125 8.9443-0.70315c4.3754-0.49302 6.0912-3.9613 11.149-3.0937 5.058 0.86759 10.101 3.8078 10.213 7.8694 0.11179 4.0303-1.8094 3.95-4.8305 3.95-3.0211 0-23.804 0.45969-24.578-0.58431z" fill="none" stroke="#000" stroke-width=".5"/>
  <g transform="matrix(2.8405 0 0 2.711 13.341 12.287)" stroke-width=".095346" aria-label="L">
   <path d="m56.326 40.198v-0.36481h-1.3617v-2.6046h-0.40299v2.9694z" stroke-width=".095346"/>
  </g>
  <g fill="none" stroke="#000" stroke-width=".26458px">
   <path d="m144.97 79.413h115.46"/>
   <path d="m145.27 106.87h114.49"/>
   <path d="m145.19 129.72h114.84"/>
  </g>
  <path d="m175.62 88.489a1.269 1.2111 0 0 1-1.269 1.2111 1.269 1.2111 0 0 1-1.269-1.2111 1.269 1.2111 0 0 1 1.269-1.2111 1.269 1.2111 0 0 1 1.269 1.2111z" stop-color="#000000" stroke-width=".5"/>
  <path d="m175.62 99.104a1.269 1.2111 0 0 1-1.269 1.2111 1.269 1.2111 0 0 1-1.269-1.2111 1.269 1.2111 0 0 1 1.269-1.2111 1.269 1.2111 0 0 1 1.269 1.2111z" stop-color="#000000" stroke-width=".5"/>
  <g transform="matrix(2.8405 0 0 2.711 13.341 12.287)" stroke-width=".095346" aria-label="音楽のサイクル">
   <path d="m64.634 37.936c0.08572 0.14288 0.16192 0.33972 0.18732 0.47625h-0.80645v0.2159h2.8289v-0.2159h-0.82232c0.0762-0.127 0.17145-0.31115 0.25082-0.47625l-0.21908-0.05397h0.635v-0.2159h-1.143v-0.28892h-0.24765v0.28892h-1.1017v0.2159h1.8161c-0.0508 0.14605-0.14605 0.3556-0.21908 0.48578l0.16192 0.04445h-1.07l0.18415-0.04762c-0.02857-0.13018-0.10795-0.33338-0.20955-0.47942zm0.08255 1.6954h1.4542v0.34608h-1.4542zm0-0.1905v-0.33338h1.4542v0.33338zm-0.23495-0.53658v1.397h0.23495v-0.12065h1.4542v0.11112h0.24765v-1.3875z"/>
   <path d="m68.238 38.393h0.73025v0.32702h-0.73025zm0-0.50165h0.73025v0.32068h-0.73025zm-1.0033-0.18415c0.19685 0.13652 0.4191 0.34608 0.51752 0.4953l0.17145-0.15558c-0.1016-0.14922-0.32702-0.34608-0.52705-0.47942zm1.9717 0.77152c0.25082 0.13335 0.56198 0.33655 0.71438 0.47942l0.14922-0.18098c-0.15875-0.1397-0.47942-0.33338-0.7239-0.4572zm0.55245-0.94298c-0.127 0.1651-0.3556 0.38735-0.52388 0.52388l0.17462 0.11748c0.17462-0.13335 0.39052-0.33338 0.55562-0.5207zm-2.6289 1.2351 0.12382 0.19368c0.20638-0.12065 0.4699-0.27622 0.70802-0.42228l-0.06668-0.19685c-0.28258 0.16192-0.5715 0.32385-0.76518 0.42545zm1.3684-1.397c-0.01587 0.09525-0.04762 0.21908-0.08255 0.32385h-0.40005v1.2128h0.46038v0.27305h-1.2795v0.21272h1.0541c-0.2794 0.2794-0.71755 0.52705-1.1176 0.65088 0.0508 0.04763 0.12382 0.13652 0.15875 0.20002 0.42228-0.15558 0.889-0.44768 1.1843-0.7874v0.83185h0.2413v-0.81915c0.29845 0.3302 0.762 0.60642 1.197 0.7493 0.03493-0.06032 0.10795-0.1524 0.16192-0.19685-0.42228-0.12065-0.8636-0.35242-1.1398-0.62865h1.0795v-0.21272h-1.2986v-0.27305h0.4826v-1.2128h-0.54928l0.10795-0.28258z"/>
   <path d="m71.702 38.005c-0.03493 0.2921-0.09843 0.59372-0.1778 0.85725-0.16192 0.53658-0.3302 0.7493-0.47942 0.7493-0.14288 0-0.32702-0.1778-0.32702-0.57785 0-0.4318 0.37465-0.9525 0.98425-1.0287zm0.26352-0.0063c0.53975 0.04762 0.84772 0.4445 0.84772 0.92392 0 0.54928-0.40005 0.8509-0.80645 0.94298-0.07303 0.01587-0.17145 0.03175-0.27305 0.04127l0.14922 0.23495c0.75248-0.09842 1.1906-0.54292 1.1906-1.2097 0-0.64452-0.47308-1.1684-1.216-1.1684-0.7747 0-1.3875 0.60325-1.3875 1.2922 0 0.52388 0.28258 0.84772 0.56515 0.84772 0.29528 0 0.5461-0.33338 0.73978-0.98742 0.0889-0.29528 0.14922-0.61912 0.1905-0.91758z"/>
   <path d="m73.578 38.209v0.27622c0.0381-0.0032 0.18098-0.0095 0.3175-0.0095h0.3429v0.51118c0 0.12065-0.0095 0.25718-0.0127 0.28892h0.2794c-0.0032-0.03175-0.0127-0.17145-0.0127-0.28892v-0.51118h0.90488v0.13018c0 0.889-0.28892 1.162-0.86678 1.3843l0.21272 0.20002c0.72708-0.32385 0.90805-0.75882 0.90805-1.6034v-0.11112h0.34925c0.1397 0 0.25718 0.0032 0.2921 0.0063v-0.2667c-0.04445 0.0063-0.1524 0.01588-0.2921 0.01588h-0.34925v-0.39688c0-0.12382 0.0127-0.2286 0.01588-0.26035h-0.28575c0.0064 0.03175 0.01588 0.13652 0.01588 0.26035v0.39688h-0.90488v-0.4064c0-0.11112 0.0127-0.20002 0.01588-0.23178h-0.28258c0.0095 0.07303 0.0127 0.1651 0.0127 0.23178v0.4064h-0.3429c-0.13335 0-0.28892-0.01588-0.3175-0.02222z"/>
   <path d="m76.813 38.898 0.127 0.24765c0.44132-0.13652 0.8763-0.32702 1.2097-0.51752v1.1748c0 0.12065-0.0095 0.2794-0.01905 0.33972h0.31115c-0.0127-0.0635-0.01905-0.21908-0.01905-0.33972v-1.3398c0.32385-0.2159 0.61595-0.4572 0.85725-0.70802l-0.21272-0.19685c-0.21908 0.26352-0.53658 0.53975-0.86678 0.74612-0.35242 0.22225-0.8382 0.4445-1.3875 0.59372z"/>
   <path d="m81.357 37.577-0.29528-0.09525c-0.01905 0.08255-0.06668 0.19685-0.09843 0.25082-0.13652 0.28575-0.45085 0.74612-0.99695 1.0732l0.21908 0.1651c0.34608-0.23178 0.61278-0.51435 0.80328-0.78105h1.0763c-0.06668 0.28892-0.26035 0.6985-0.508 0.9906-0.28892 0.33655-0.6858 0.62548-1.2668 0.79692l0.2286 0.20638c0.5969-0.21908 0.97472-0.51118 1.2636-0.8636 0.28258-0.3429 0.47942-0.77152 0.56515-1.0922 0.01588-0.0508 0.04763-0.12382 0.07303-0.16828l-0.21272-0.13018c-0.0508 0.02222-0.12065 0.03175-0.20638 0.03175h-0.8636l0.0762-0.13335c0.03175-0.06032 0.0889-0.16828 0.14288-0.25082z"/>
   <path d="m84.395 39.977 0.16828 0.1397c0.02223-0.01905 0.05715-0.04445 0.10795-0.07303 0.3683-0.18098 0.80962-0.508 1.0827-0.87948l-0.14922-0.2159c-0.24448 0.35878-0.635 0.6477-0.9271 0.78105v-1.832c0-0.12065 0.0095-0.20955 0.0127-0.23495h-0.2921c0.0032 0.0254 0.01587 0.1143 0.01587 0.23495v1.9018c0 0.0635-0.0063 0.127-0.01905 0.1778zm-1.4542-0.01587 0.23812 0.15875c0.2667-0.21908 0.4699-0.53022 0.56515-0.86995 0.08572-0.3175 0.09842-0.99695 0.09842-1.3494 0-0.09525 0.0127-0.1905 0.01588-0.2286h-0.2921c0.0127 0.06667 0.02223 0.13652 0.02223 0.23178 0 0.35242-0.0032 0.98742-0.09525 1.2764-0.09525 0.30798-0.28575 0.59055-0.55245 0.78105z"/>
  </g>
  <path d="m190.31 117.92a1.269 1.2111 0 0 1-1.269 1.2111 1.269 1.2111 0 0 1-1.269-1.2111 1.269 1.2111 0 0 1 1.269-1.2111 1.269 1.2111 0 0 1 1.269 1.2111z" stop-color="#000000" stroke-width=".5"/>
  <g transform="matrix(2.8405 0 0 2.711 13.341 12.287)" stroke-width=".095346" aria-label="やり直す">
   <path d="m66.007 46.925 0.23573-0.1861c-0.15715-0.16129-0.47146-0.42184-0.60794-0.52523l-0.23573 0.16956c0.17783 0.13234 0.44665 0.38462 0.60794 0.54177zm-2.0471 0.85194 0.15715 0.33912c0.19024-0.08685 0.47973-0.23573 0.79818-0.38875l0.15715 0.34326c0.23573 0.54177 0.43424 1.2076 0.56245 1.6956l0.35566-0.09512c-0.14061-0.45492-0.40116-1.2241-0.62862-1.737l-0.15715-0.34326c0.47973-0.22332 0.98842-0.4177 1.3524-0.4177 0.40529 0 0.59967 0.22332 0.59967 0.46733 0 0.29777-0.19024 0.5459-0.64102 0.5459-0.21919 0-0.42597-0.06203-0.58726-0.13234l-0.01241 0.32258c0.15715 0.0579 0.38875 0.1158 0.62035 0.1158 0.64516 0 0.9512-0.3598 0.9512-0.8354 0-0.45078-0.35153-0.7775-0.92225-0.7775-0.43011 0-0.98842 0.22332-1.4888 0.44251-0.08271-0.1737-0.16543-0.33912-0.23987-0.4756-0.04549-0.07444-0.1158-0.21092-0.14475-0.27709l-0.33912 0.13648c0.06617 0.08271 0.14888 0.21092 0.20265 0.29363 0.07031 0.1158 0.14888 0.27295 0.23573 0.45492-0.1861 0.08271-0.35153 0.15715-0.49214 0.21092-0.07444 0.02895-0.21919 0.08271-0.33912 0.11166z"/>
   <path d="m69.25 46.288-0.36394-0.01241c-0.0083 0.11166-0.01654 0.2316-0.03308 0.35566-0.04963 0.33499-0.1282 0.94293-0.1282 1.3358 0 0.26882 0.02481 0.50041 0.04549 0.65757l0.31844-0.02481c-0.02481-0.20678-0.02895-0.34739-0.0083-0.50868 0.04963-0.54177 0.52936-1.2945 1.0463-1.2945 0.43424 0 0.65757 0.47146 0.65757 1.1249 0 1.038-0.70306 1.4061-1.6005 1.5385l0.19438 0.29777c1.0256-0.1861 1.7452-0.69065 1.7452-1.8404 0-0.86848-0.39289-1.4185-0.94293-1.4185-0.52523 0-0.95533 0.51696-1.1249 0.93879 0.02481-0.28949 0.10753-0.84781 0.19438-1.1497z"/>
   <path d="m73.518 47.88h1.5881v0.33912h-1.5881zm0 0.56245h1.5881v0.34739h-1.5881zm0-1.1249h1.5881v0.33912h-1.5881zm-1.0587-0.1158v2.684h0.3019v-0.21919h3.1514v-0.28949h-3.1514v-2.1753zm1.4971-1.1373-0.02895 0.39289h-1.6873v0.2895h1.6584l-0.04136 0.33912h-0.63689v1.9396h2.1919v-1.9396h-1.2448l0.0579-0.33912h1.6543v-0.2895h-1.6129l0.04549-0.37221z"/>
   <path d="m78.468 48.013c0.03722 0.38875-0.12407 0.58313-0.36394 0.58313-0.2316 0-0.42184-0.15302-0.42184-0.40943 0-0.26882 0.20265-0.43838 0.4177-0.43838 0.16542 0 0.3019 0.07858 0.36807 0.26468zm-1.952-1.1621 0.0083 0.31844c0.51696-0.03722 1.22-0.06617 1.8486-0.07031l0.0041 0.4177c-0.08271-0.02895-0.1737-0.04549-0.27709-0.04549-0.39289 0-0.72787 0.31017-0.72787 0.7196 0 0.45078 0.33085 0.69065 0.67824 0.69065 0.14061 0 0.26054-0.03722 0.3598-0.11166-0.16543 0.37634-0.5459 0.60794-1.0959 0.73201l0.27709 0.27295c0.9636-0.2895 1.2366-0.90984 1.2366-1.4682 0-0.20678-0.04549-0.38875-0.13234-0.52936l-0.0083-0.68238h0.0579c0.6038 0 0.98015 0.0083 1.2117 0.02068l0.0041-0.30604c-0.19851 0-0.7072-0.0041-1.2117-0.0041h-0.06203l0.0041-0.26882c0.0041-0.05376 0.01241-0.21505 0.02068-0.26054h-0.37634c0.0041 0.03308 0.02068 0.15302 0.02481 0.26054l0.0083 0.27295c-0.61621 0.0083-1.3937 0.03308-1.8528 0.04136z"/>
  </g>
  <g stroke-width=".5">
   <path d="m190.31 143.18a1.269 1.2111 0 0 1-1.269 1.2111 1.269 1.2111 0 0 1-1.269-1.2111 1.269 1.2111 0 0 1 1.269-1.2111 1.269 1.2111 0 0 1 1.269 1.2111z" stop-color="#000000"/>
   <path d="m175.62 61.544a1.269 1.2111 0 0 1-1.269 1.2111 1.269 1.2111 0 0 1-1.269-1.2111 1.269 1.2111 0 0 1 1.269-1.2111 1.269 1.2111 0 0 1 1.269 1.2111z" stop-color="#000000"/>
   <path d="m175.62 72.685a1.269 1.2111 0 0 1-1.269 1.2111 1.269 1.2111 0 0 1-1.269-1.2111 1.269 1.2111 0 0 1 1.269-1.2111 1.269 1.2111 0 0 1 1.269 1.2111z" stop-color="#000000"/>
  </g>
 </g>
 <g transform="translate(.093641 .021035)">
  <g fill="#fff" stroke="#000" stroke-width=".5">
   <path d="m68.347 89.878 19.643-7.5937c2.1657-0.83724 4.5832 0.23224 5.4204 2.3979l13.449 34.788c0.83724 2.1657-0.23224 4.5832-2.3979 5.4204l-19.643 7.5937c-2.1657 0.83723-4.5832-0.23224-5.4204-2.3979l-13.449-34.788c-0.83724-2.1657 0.23224-4.5832 2.3979-5.4204z" stop-color="#000000"/>
   <path d="m90.237 79.238 20.698 3.8832c2.2821 0.42814 3.7746 2.61 3.3464 4.8921l-6.8773 36.657c-0.42814 2.2821-2.61 3.7746-4.8921 3.3464l-20.698-3.8832c-2.2821-0.42815-3.7746-2.61-3.3464-4.8921l6.8773-36.657c0.42814-2.2821 2.61-3.7746 4.8921-3.3464z" stop-color="#000000"/>
   <path d="m109.29 89.408 18.475 10.108c2.037 1.1144 2.7797 3.6514 1.6653 5.6884l-17.901 32.72c-1.1144 2.037-3.6514 2.7797-5.6884 1.6653l-18.475-10.108c-2.037-1.1144-2.7797-3.6514-1.6653-5.6884l17.901-32.72c1.1144-2.037 3.6514-2.7797 5.6884-1.6653z" stop-color="#000000"/>
  </g>
  <path d="m109.55 92.582c-0.0319-0.01545-0.0676-0.02305-0.1042-0.02091-0.13761 0.0083-3.3797 0.22102-4.2405 1.9908-0.42424 0.87219-0.0577 1.9281 0.81755 2.3538 0.17627 0.08572 0.36164 0.14096 0.55047 0.16499-0.25968 0.20667-0.55127 0.3737-0.8617 0.4921-0.0783 0.02985-0.13131 0.10337-0.135 0.18704-4e-3 0.08367 0.0428 0.16135 0.11813 0.198l2.0292 0.98702c0.0753 0.03662 0.16516 0.02526 0.22868-0.0293 0.0636-0.05456 0.0887-0.1417 0.0638-0.22167-0.0978-0.31501-0.14657-0.64517-0.145-0.97494 0.13231 0.12773 0.28485 0.2345 0.45451 0.31702 0.87522 0.42571 1.9326 0.0624 2.3569-0.80978 0.86083-1.7697-0.97324-4.4516-1.0518-4.565-0.0209-0.0302-0.0492-0.05387-0.0811-0.06937z" stroke-width=".42005"/>
  <path d="m92.371 83.556c-0.07331-0.01093-0.14771 0.01473-0.19964 0.06751-0.91214 0.93013-2.4702 2.0868-3.6246 2.6906-0.06566 0.03434-0.11055 0.09745-0.12143 0.17081-0.01093 0.07331 0.01378 0.14762 0.06666 0.19952 0.93016 0.91215 2.0868 2.4702 2.6906 3.6246 0.03436 0.06568 0.09821 0.11155 0.17155 0.12241 0.07331 0.01093 0.14771-0.01473 0.19964-0.06751 0.91214-0.93013 2.4702-2.0868 3.6246-2.6906 0.06568-0.03436 0.11071-0.09833 0.12155-0.17169 0.01093-0.07331-0.01426-0.14674-0.0668-0.19864-0.93016-0.91212-2.0868-2.4702-2.6906-3.6246-0.03434-0.06566-0.09822-0.11154-0.17155-0.1224z" stroke-width=".42005"/>
  <path d="m71.018 91.602c-0.32388 0.12687-0.58207 0.36706-0.73164 0.6833-0.15962 0.33749-0.17428 0.71585-0.04149 1.0647 0.18303 0.48071 0.6152 0.81246 1.1281 0.86623 0.04589 5e-3 0.08557 0.02552 0.11221 0.05808 0.03976 0.04829 0.07768 0.09779 0.11416 0.14852-0.39008-0.2809-0.90453-0.3371-1.3498-0.13766-0.62951 0.28194-0.95083 1.0154-0.73145 1.6697 0.11872 0.35467 0.37053 0.63796 0.70783 0.79748 0.33749 0.15962 0.71541 0.17445 1.0642 0.04166 0.43163-0.16437 0.74388-0.53067 0.84175-0.97531 0.05064 0.48215-0.01949 0.97531-0.20634 1.4271-0.03013 0.07293-0.01426 0.15715 0.04087 0.21375 0.05518 0.05653 0.13861 0.07464 0.21235 0.04658l0.29481-0.11226 1.6305-0.62082c0.07374-0.02809 0.12371-0.09698 0.12711-0.17582 0.0036-0.07889-0.04075-0.15232-0.11164-0.1868-0.44004-0.21311-0.81988-0.53496-1.1028-0.92865 0.36879 0.26692 0.84562 0.33283 1.2773 0.16846 0.34878-0.13281 0.62113-0.39524 0.767-0.73888 0.14579-0.34348 0.14477-0.72225-0.0023-1.0661-0.27132-0.63451-0.99912-0.96853-1.6567-0.76039-0.46526 0.1474-0.81196 0.53126-0.91639 1.0005-0.0067-0.06171-0.01117-0.12362-0.01355-0.18571-0.0017-0.04273 0.01521-0.08522 0.047-0.12027 0.36317-0.39991 0.4551-0.97687 0.23436-1.4698-0.28193-0.62949-1.0154-0.95081-1.6697-0.73145-0.02258 0.0076-0.04399 0.01545-0.06554 0.02386z" stroke-width=".42005"/>
  <g stroke-width=".26458">
   <path d="m54.288 126.03q0-1.7351-0.61945-3.2842-0.61946-1.6111-1.6519-2.7265 2.2713-1.2393 2.2713-4.1517 0-1.859-1.084-3.1603-1.084-1.3013-2.6327-1.3013h-2.8392q-2.7359 0-4.6459 2.2928-1.91 2.2928-1.91 5.577 0 3.594 2.2713 5.9488-1.0324 0.5577-1.6519 1.6731-0.61945 1.1154-0.61945 2.5406 0 1.859 1.084 3.1603 1.084 1.3013 2.6327 1.3013h2.8392q2.7359 0 4.6459-2.2928 1.91-2.2928 1.91-5.577z"/>
   <path d="m65.597 119.28q0-3.2842-1.91-5.577-1.91-2.2928-4.6459-2.2928-2.7359 0-4.6459 2.2928t-1.91 5.577v6.7543q0 3.2842 1.91 5.577 1.91 2.2928 4.6459 2.2928 2.7359 0 4.6459-2.2928 1.91-2.2928 1.91-5.577z"/>
   <path d="m76.905 129.44q0-1.921-1.084-3.2222-1.084-1.3013-2.6327-1.3013h-1.91v-9.0471q0-1.859-1.084-3.1603-1.084-1.3013-2.6843-1.3013-1.5486 0-2.6327 1.3013-1.084 1.3013-1.084 3.1603v13.571q0 1.859 1.084 3.1603 1.084 1.3013 2.6327 1.3013h5.6783q1.5486 0 2.6327-1.3013 1.084-1.3013 1.084-3.1603z"/>
   <path d="m88.213 129.44q0-1.6731-0.77432-2.8504-0.72269-1.1774-2.0132-1.5492v-4.7714q1.2389-0.3718 2.0132-1.5492 0.77432-1.2393 0.77432-2.8504 0-1.859-1.084-3.1603-1.084-1.3013-2.6327-1.3013h-5.6783q-1.5486 0-2.6327 1.3013-1.084 1.3013-1.084 3.1603 0 1.6731 0.7227 2.8504 0.77432 1.1774 2.0648 1.5492v4.7714q-1.2389 0.37181-2.0132 1.6111-0.77432 1.1774-0.77432 2.7885 0 1.859 1.084 3.1603 1.084 1.3013 2.6327 1.3013h5.6783q1.5486 0 2.6327-1.3013 1.084-1.3013 1.084-3.1603z"/>
   <path d="m96.734 120.27q1.2389-0.3718 2.0132-1.5492 0.77432-1.2393 0.77432-2.8504 0-1.859-1.084-3.1603-1.084-1.3013-2.6327-1.3013h-5.6783q-1.5486 0-2.6327 1.3013-1.084 1.3013-1.084 3.1603 0 1.6731 0.7227 2.8504 0.77432 1.1774 2.0648 1.5492v9.171q0 1.859 1.1357 3.1603 1.1357 1.3013 2.6327 1.3013 1.6003 0 2.6843-1.3013 1.084-1.3013 1.084-3.1603z"/>
   <path d="m110.83 119.28q0-3.2842-1.91-5.577-1.91-2.2928-4.6459-2.2928-2.7359 0-4.6459 2.2928-1.91 2.2928-1.91 5.577v10.162q0 1.859 1.084 3.1603 1.084 1.3013 2.6327 1.3013 1.8584 0 2.8392-1.5492 0.9808 1.5492 2.8392 1.5492 1.5486 0 2.6327-1.3013 1.084-1.3013 1.084-3.1603z"/>
   <path d="m122.14 129.44q0-1.6731-0.77431-2.8504-0.7227-1.1774-2.0132-1.5492v-4.7714q1.2389-0.3718 2.0132-1.5492 0.77431-1.2393 0.77431-2.8504 0-1.859-1.084-3.1603t-2.6327-1.3013h-5.6783q-1.5486 0-2.6327 1.3013-1.084 1.3013-1.084 3.1603 0 1.6731 0.72269 2.8504 0.77432 1.1774 2.0648 1.5492v4.7714q-1.2389 0.37181-2.0132 1.6111-0.77432 1.1774-0.77432 2.7885 0 1.859 1.084 3.1603 1.084 1.3013 2.6327 1.3013h5.6783q1.5486 0 2.6327-1.3013 1.084-1.3013 1.084-3.1603z"/>
   <path d="m132.83 122.62q0.61945-1.5492 0.61945-3.3462 0-3.2842-1.91-5.577t-4.6459-2.2928h-2.8392q-1.5486 0-2.6327 1.3013t-1.084 3.1603v13.571q0 1.859 1.084 3.1603 1.084 1.3013 2.6327 1.3013 1.8584 0 2.8392-1.5492 0.9808 1.5492 2.8392 1.5492 1.5486 0 2.6327-1.3013 1.084-1.3013 1.084-3.1603v-3.4081q0-1.797-0.61945-3.4082z"/>
   <path d="m143.47 126.03q1.2905-1.1774 1.2905-3.4082 0-2.1688-1.2905-3.3462 1.2905-1.1774 1.2905-3.4082 0-1.859-1.084-3.1603t-2.6327-1.3013h-5.6783q-1.5486 0-2.6327 1.3013-1.084 1.3013-1.084 3.1603v13.571q0 1.859 1.084 3.1603 1.084 1.3013 2.6327 1.3013h5.6783q1.5486 0 2.6327-1.3013 1.084-1.3013 1.084-3.1603 0-2.2308-1.2905-3.4081z"/>
  </g>
  <g fill="#fffffe" stroke-width=".26458">
   <path d="m52.43 126.03q0 2.3547-1.3938 4.0278-1.3422 1.6111-3.3038 1.6111h-2.8392q-0.77432 0-1.3422-0.61966-0.51621-0.68163-0.51621-1.6111 0-0.99146 0.51621-1.6111 0.56783-0.68163 1.3422-0.68163h2.8392q0.92918 0 0.92918-1.1154 0-1.1154-0.92918-1.1154-1.9616 0-3.3554-1.6111-1.3421-1.6731-1.3421-4.0278t1.3421-3.9658q1.3938-1.6731 3.3554-1.6731h2.8392q0.77432 0 1.2905 0.68163 0.56783 0.61967 0.56783 1.5492t-0.56783 1.6111q-0.56783 0.68162-1.2905 0.68162h-2.8392q-0.92918 0-0.92918 1.1154 0 1.1154 0.92918 1.1154 1.9616 0 3.3038 1.6731 1.3938 1.6111 1.3938 3.9658z"/>
   <path d="m63.738 119.28v6.7543q0 2.3547-1.3938 4.0278-1.3421 1.6111-3.3038 1.6111-1.9616 0-3.3554-1.6111-1.3421-1.6731-1.3421-4.0278v-6.7543q0-2.3547 1.3421-3.9658 1.3938-1.6731 3.3554-1.6731 1.9616 0 3.3038 1.6731 1.3938 1.6111 1.3938 3.9658z"/>
   <path d="m75.047 129.44q0 0.9295-0.56783 1.6111-0.51621 0.61966-1.2905 0.61966h-5.6783q-0.77432 0-1.3422-0.61966-0.51621-0.68163-0.51621-1.6111v-13.571q0-0.92949 0.51621-1.5492 0.56784-0.68163 1.3422-0.68163 0.82593 0 1.3421 0.68163 0.56783 0.61967 0.56783 1.5492v11.278h3.7683q0.77432 0 1.2905 0.68163 0.56783 0.61966 0.56783 1.6111z"/>
   <path d="m86.355 129.44q0 0.9295-0.56783 1.6111-0.51621 0.61966-1.2905 0.61966h-5.6783q-0.77432 0-1.3421-0.61966-0.51621-0.68163-0.51621-1.6111 0-0.99146 0.51621-1.6111 0.56783-0.68163 1.3421-0.68163h0.9808v-8.9851h-0.9808q-0.82594 0-1.3421-0.68162-0.51621-0.68164-0.51621-1.6111t0.51621-1.5492q0.56783-0.68163 1.3421-0.68163h5.6783q0.77432 0 1.2905 0.68163 0.56783 0.61967 0.56783 1.5492t-0.56783 1.6111q-0.56783 0.68162-1.2905 0.68162h-0.9808v8.9851h0.9808q0.77432 0 1.2905 0.68163 0.56783 0.61966 0.56783 1.6111z"/>
   <path d="m97.664 115.87q0 0.92949-0.56784 1.6111-0.56783 0.68162-1.2905 0.68162h-0.9808v11.278q0 0.9295-0.56783 1.6111-0.51621 0.61966-1.2905 0.61966-0.77431 0-1.3421-0.61966-0.51621-0.68163-0.51621-1.6111v-11.278h-0.9808q-0.82593 0-1.3421-0.68162-0.51621-0.68164-0.51621-1.6111t0.51621-1.5492q0.56783-0.68163 1.3421-0.68163h5.6783q0.77432 0 1.2905 0.68163 0.56784 0.61967 0.56784 1.5492z"/>
   <path d="m108.97 119.28v10.162q0 0.9295-0.56784 1.6111-0.51621 0.61966-1.2905 0.61966-0.82594 0-1.3938-0.61966-0.5162-0.68163-0.5162-1.6111v-4.5235h-1.8584v4.5235q0 0.9295-0.56784 1.6111-0.51621 0.61966-1.3421 0.61966-0.77432 0-1.3422-0.61966-0.51621-0.68163-0.51621-1.6111v-10.162q0-2.3547 1.3421-3.9658 1.3938-1.6731 3.3554-1.6731 1.9616 0 3.3038 1.6731 1.3938 1.6111 1.3938 3.9658z"/>
   <path d="m120.28 129.44q0 0.9295-0.56783 1.6111-0.51621 0.61966-1.2905 0.61966h-5.6783q-0.77431 0-1.3422-0.61966-0.51621-0.68163-0.51621-1.6111 0-0.99146 0.51621-1.6111 0.56784-0.68163 1.3422-0.68163h0.9808v-8.9851h-0.9808q-0.82594 0-1.3422-0.68162-0.51621-0.68164-0.51621-1.6111t0.51621-1.5492q0.56784-0.68163 1.3422-0.68163h5.6783q0.77432 0 1.2905 0.68163 0.56783 0.61967 0.56783 1.5492t-0.56783 1.6111q-0.56783 0.68162-1.2905 0.68162h-0.9808v8.9851h0.9808q0.77432 0 1.2905 0.68163 0.56783 0.61966 0.56783 1.6111z"/>
   <path d="m130.66 122.62 0.30973 0.61966q0.61945 1.2393 0.61945 2.7885v3.4081q0 0.9295-0.56783 1.6111-0.51621 0.61966-1.2905 0.61966-0.82594 0-1.3938-0.61966-0.51621-0.68163-0.51621-1.6111v-3.4081q0-1.1154-0.92918-1.1154h-0.92918v4.5235q0 0.9295-0.56783 1.6111-0.51621 0.61966-1.3422 0.61966-0.77432 0-1.3422-0.61966-0.51621-0.68163-0.51621-1.6111v-13.571q0-0.92949 0.51621-1.5492 0.56783-0.68163 1.3422-0.68163h2.8392q1.9616 0 3.3038 1.6731 1.3938 1.6111 1.3938 3.9658 0 1.4872-0.61945 2.7885z"/>
   <path d="m141.04 124.92h-3.7683v2.2308h3.7683q0.77432 0 1.2905 0.68163 0.56782 0.61966 0.56782 1.6111 0 0.9295-0.56782 1.6111-0.51622 0.61966-1.2905 0.61966h-5.6783q-0.77431 0-1.3421-0.61966-0.51622-0.68163-0.51622-1.6111v-13.571q0-0.92949 0.51622-1.5492 0.56783-0.68163 1.3421-0.68163h5.6783q0.77432 0 1.2905 0.68163 0.56782 0.61967 0.56782 1.5492t-0.56782 1.6111q-0.56784 0.68162-1.2905 0.68162h-3.7683v2.2308h3.7683q0.77432 0 1.2905 0.68163 0.56782 0.61967 0.56782 1.5492 0 0.99146-0.56782 1.6731-0.51622 0.61966-1.2905 0.61966z"/>
  </g>
  <g stroke-width=".26458">
   <path d="m59.97 119.28q0-1.1154-0.92918-1.1154-0.92918 0-0.92918 1.1154v6.7543q0 1.1154 0.92918 1.1154 0.92918 0 0.92918-1.1154z"/>
   <path d="m105.2 119.28q0-1.1154-0.92918-1.1154t-0.92918 1.1154v1.1154h1.8584z"/>
   <path d="m127.82 119.28q0-1.1154-0.92918-1.1154h-0.92918v2.2308h0.92918q0.92918 0 0.92918-1.1154z"/>
  </g>
 </g>
</svg>
